<?xml version="1.0" encoding="UTF-8"?>
<!DOCTYPE svg PUBLIC "-//W3C//DTD SVG 1.1//EN" "http://www.w3.org/Graphics/SVG/1.1/DTD/svg11.dtd">
<!-- Creator: CorelDRAW 2019 (64-Bit) -->
<svg xmlns="http://www.w3.org/2000/svg" xml:space="preserve" width="100px" height="100px" version="1.1" style="shape-rendering:geometricPrecision; text-rendering:geometricPrecision; image-rendering:optimizeQuality; fill-rule:evenodd; clip-rule:evenodd"
viewBox="0 0 100 100"
 xmlns:xlink="http://www.w3.org/1999/xlink">
 <defs>
  <style type="text/css">
   <![CDATA[
    .fil0 {fill:#00A99E}
   ]]>
  </style>
   <clipPath id="id0">
    <rect x="2657.02" y="-714" width="1366.01" height="768"/>
   </clipPath>
 </defs>
 <g id="Layer_x0020_1">
  <metadata id="CorelCorpID_0Corel-Layer"/>
  <g style="clip-path:url(#id0)">
   <image x="2657.02" y="-714" width="1366.01" height="768" xlink:href="add_Images\add_ImgID1.png"/>
  </g>
  <path class="fil0" d="M60.71 41.07c-0.98,0 -1.78,-0.8 -1.78,-1.78l0 -39.29 -17.86 0 0 39.29c0,0.98 -0.8,1.78 -1.78,1.78l-39.29 0 0 17.86 39.29 0c0.98,0 1.78,0.8 1.78,1.78l0 39.29 17.86 0 0 -39.29c0,-0.98 0.8,-1.78 1.78,-1.78l39.29 0 0 -17.86 -39.29 0zm0 0z"/>
 </g>
</svg>
