<?xml version="1.0" encoding="UTF-8"?>
<!DOCTYPE svg PUBLIC "-//W3C//DTD SVG 1.1//EN" "http://www.w3.org/Graphics/SVG/1.1/DTD/svg11.dtd">
<!-- Creator: CorelDRAW 2019 (64-Bit) -->
<svg xmlns="http://www.w3.org/2000/svg" xml:space="preserve" width="40px" height="40px" version="1.1" style="shape-rendering:geometricPrecision; text-rendering:geometricPrecision; image-rendering:optimizeQuality; fill-rule:evenodd; clip-rule:evenodd"
viewBox="0 0 40 40"
 xmlns:xlink="http://www.w3.org/1999/xlink">
 <defs>
  <style type="text/css">
   <![CDATA[
    .fil0 {fill:black}
    .fil1 {fill:#999999}
   ]]>
  </style>
 </defs>
 <g id="Layer_x0020_1">
  <metadata id="CorelCorpID_0Corel-Layer"/>
  <g id="_1936840334704">
   <g>
    <g id="_315_38_">
     <g>
      <path class="fil0" d="M3316.66 -1177.35l21.68 0c32.95,0 59.66,-26.72 59.66,-59.66l0 -164.64 0 -61.58c0,-32.94 -26.71,-59.66 -59.66,-59.66l-21.68 0c-32.95,0 -59.66,26.72 -59.66,59.66l0 61.59 0 164.63c0,32.94 26.71,59.66 59.66,59.66z"/>
      <path class="fil0" d="M4081.89 -1178.83l21.68 0c32.94,0 59.65,-26.71 59.65,-59.66l0 -178.78 0 -47.44c0,-32.94 -26.71,-59.66 -59.65,-59.66l-21.68 0c-32.96,0 -59.67,26.72 -59.67,59.66l0 47.44 0 178.78c0.01,32.95 26.72,59.66 59.67,59.66z"/>
      <path class="fil0" d="M4364.84 -1401.65l-153.12 0 0 178.78c0,59.64 -48.51,92.54 -108.15,92.54l-21.68 0c-59.64,0 -108.15,-48.52 -108.15,-108.16l0 -163.16 -527.24 0 0 164.64c0,59.64 -48.52,108.16 -108.16,108.16l-21.68 0c-59.63,0 -108.15,-48.52 -108.15,-108.16l0 -164.64 -165.2 0c-53.48,0 -96.99,43.51 -96.99,97l0 1171.99c0,53.48 43.51,96.99 96.99,96.99l1321.53 0c53.48,0 96.98,-43.51 96.98,-96.99l0 -1171.99c0.01,-53.48 -43.5,-97 -96.98,-97zm0 1268.99l-1321.52 0 -0.01 -885.06 1321.55 0 0.05 885.05c-0.01,0 -0.03,0.01 -0.07,0.01z"/>
      <path class="fil0" d="M3754.15 -720.85l174.15 0c6.9,0 12.49,-5.59 12.49,-12.5l0 -150.8c0,-6.9 -5.59,-12.5 -12.49,-12.5l-174.15 0c-6.91,0 -12.5,5.6 -12.5,12.5l0 150.8c0,6.91 5.59,12.5 12.5,12.5z"/>
      <path class="fil0" d="M4038.35 -720.85l174.15 0c6.91,0 12.5,-5.59 12.5,-12.5l0 -150.8c0,-6.9 -5.59,-12.5 -12.5,-12.5l-174.15 0c-6.9,0 -12.5,5.6 -12.5,12.5l0 150.8c0,6.91 5.6,12.5 12.5,12.5z"/>
      <path class="fil0" d="M3185.74 -473.97l174.15 0c6.9,0 12.5,-5.6 12.5,-12.5l0 -150.8c0,-6.9 -5.6,-12.5 -12.5,-12.5l-174.15 0c-6.91,0 -12.5,5.6 -12.5,12.5l0 150.8c0,6.91 5.6,12.5 12.5,12.5z"/>
      <path class="fil0" d="M3469.94 -473.97l174.15 0c6.91,0 12.5,-5.6 12.5,-12.5l0 -150.8c0,-6.9 -5.6,-12.5 -12.5,-12.5l-174.15 0c-6.9,0 -12.5,5.6 -12.5,12.5l0 150.8c0,6.91 5.6,12.5 12.5,12.5z"/>
      <path class="fil0" d="M3754.15 -473.97l174.15 0c6.9,0 12.49,-5.6 12.49,-12.5l0 -150.8c0,-6.9 -5.59,-12.5 -12.49,-12.5l-174.15 0c-6.9,0 -12.5,5.6 -12.5,12.5l0 150.8c0,6.91 5.6,12.5 12.5,12.5z"/>
      <path class="fil0" d="M4038.35 -473.97l174.15 0c6.91,0 12.5,-5.6 12.5,-12.5l0 -150.8c0,-6.9 -5.59,-12.5 -12.5,-12.5l-174.15 0c-6.9,0 -12.5,5.6 -12.5,12.5l0 150.8c0,6.91 5.6,12.5 12.5,12.5z"/>
      <path class="fil0" d="M3359.89 -402.89l-174.15 0c-6.9,0 -12.5,5.6 -12.5,12.5l0 150.8c0,6.9 5.6,12.5 12.5,12.5l174.15 0c6.9,0 12.5,-5.6 12.5,-12.5l0 -150.8c0,-6.9 -5.6,-12.5 -12.5,-12.5z"/>
      <path class="fil0" d="M3644.09 -402.89l-174.14 0c-6.91,0 -12.5,5.6 -12.5,12.5l0 150.8c0,6.9 5.59,12.5 12.5,12.5l174.14 0c6.91,0 12.5,-5.6 12.5,-12.5l0 -150.8c0,-6.9 -5.59,-12.5 -12.5,-12.5z"/>
      <path class="fil0" d="M3928.3 -402.89l-174.15 0c-6.9,0 -12.5,5.6 -12.5,12.5l0 150.8c0,6.9 5.6,12.5 12.5,12.5l174.15 0c6.91,0 12.5,-5.6 12.5,-12.5l0 -150.8c0,-6.9 -5.6,-12.5 -12.5,-12.5z"/>
      <path class="fil0" d="M4212.5 -402.89l-174.15 0c-6.9,0 -12.5,5.6 -12.5,12.5l0 150.8c0,6.9 5.6,12.5 12.5,12.5l174.15 0c6.91,0 12.5,-5.6 12.5,-12.5l0 -150.8c0,-6.9 -5.59,-12.5 -12.5,-12.5z"/>
     </g>
    </g>
   </g>
   <g>
   </g>
   <g>
   </g>
   <g>
   </g>
   <g>
   </g>
   <g>
   </g>
   <g>
   </g>
   <g>
   </g>
   <g>
   </g>
   <g>
   </g>
   <g>
   </g>
   <g>
   </g>
   <g>
   </g>
   <g>
   </g>
   <g>
   </g>
   <g>
   </g>
  </g>
  <g id="_1934991078496">
   <g>
    <g id="_315_38__0">
     <g>
      <path class="fil1" d="M10.49 10.25l0.53 0c0.81,0 1.47,-0.66 1.47,-1.47l0 -4.04 0 -1.51c0,-0.81 -0.66,-1.47 -1.47,-1.47l-0.53 0c-0.81,0 -1.47,0.66 -1.47,1.47l0 1.51 0 4.04c0,0.81 0.66,1.47 1.47,1.47z"/>
      <path class="fil1" d="M29.28 10.21l0.53 0c0.81,0 1.46,-0.66 1.46,-1.47l0 -4.39 0 -1.16c0,-0.81 -0.65,-1.46 -1.46,-1.46l-0.53 0c-0.81,0 -1.47,0.65 -1.47,1.46l0 1.16 0 4.39c0,0.81 0.66,1.47 1.47,1.47z"/>
      <path class="fil1" d="M36.22 4.74l-3.76 0 0 4.39c0,1.46 -1.19,2.27 -2.65,2.27l-0.53 0c-1.47,0 -2.66,-1.19 -2.66,-2.66l0 -4 -12.94 0 0 4.04c0,1.47 -1.19,2.66 -2.66,2.66l-0.53 0c-1.47,0 -2.66,-1.19 -2.66,-2.66l0 -4.04 -4.05 0c-1.31,0 -2.38,1.07 -2.38,2.38l0 28.77c0,1.32 1.07,2.38 2.38,2.38l32.44 0c1.31,0 2.38,-1.06 2.38,-2.38l0 -28.77c0,-1.31 -1.07,-2.38 -2.38,-2.38zm0 31.15l-32.44 0 0 -21.73 32.44 0 0 21.73c0,0 0,0 0,0z"/>
      <path class="fil1" d="M21.23 21.45l4.28 0c0.16,0 0.3,-0.13 0.3,-0.3l0 -3.71c0,-0.17 -0.14,-0.3 -0.3,-0.3l-4.28 0c-0.17,0 -0.31,0.13 -0.31,0.3l0 3.71c0,0.17 0.14,0.3 0.31,0.3z"/>
      <path class="fil1" d="M28.21 21.45l4.27 0c0.17,0 0.31,-0.13 0.31,-0.3l0 -3.71c0,-0.17 -0.14,-0.3 -0.31,-0.3l-4.27 0c-0.17,0 -0.31,0.13 -0.31,0.3l0 3.71c0,0.17 0.14,0.3 0.31,0.3z"/>
      <path class="fil1" d="M7.27 27.51l4.28 0c0.17,0 0.31,-0.13 0.31,-0.3l0 -3.71c0,-0.16 -0.14,-0.3 -0.31,-0.3l-4.28 0c-0.17,0 -0.3,0.14 -0.3,0.3l0 3.71c0,0.17 0.13,0.3 0.3,0.3z"/>
      <path class="fil1" d="M14.25 27.51l4.28 0c0.17,0 0.3,-0.13 0.3,-0.3l0 -3.71c0,-0.16 -0.13,-0.3 -0.3,-0.3l-4.28 0c-0.17,0 -0.3,0.14 -0.3,0.3l0 3.71c0,0.17 0.13,0.3 0.3,0.3z"/>
      <path class="fil1" d="M21.23 27.51l4.28 0c0.16,0 0.3,-0.13 0.3,-0.3l0 -3.71c0,-0.16 -0.14,-0.3 -0.3,-0.3l-4.28 0c-0.17,0 -0.31,0.14 -0.31,0.3l0 3.71c0,0.17 0.14,0.3 0.31,0.3z"/>
      <path class="fil1" d="M28.21 27.51l4.27 0c0.17,0 0.31,-0.13 0.31,-0.3l0 -3.71c0,-0.16 -0.14,-0.3 -0.31,-0.3l-4.27 0c-0.17,0 -0.31,0.14 -0.31,0.3l0 3.71c0,0.17 0.14,0.3 0.31,0.3z"/>
      <path class="fil1" d="M11.55 29.26l-4.28 0c-0.17,0 -0.3,0.14 -0.3,0.31l0 3.7c0,0.17 0.13,0.3 0.3,0.3l4.28 0c0.17,0 0.31,-0.13 0.31,-0.3l0 -3.7c0,-0.17 -0.14,-0.31 -0.31,-0.31z"/>
      <path class="fil1" d="M18.53 29.26l-4.28 0c-0.17,0 -0.3,0.14 -0.3,0.31l0 3.7c0,0.17 0.13,0.3 0.3,0.3l4.28 0c0.17,0 0.3,-0.13 0.3,-0.3l0 -3.7c0,-0.17 -0.13,-0.31 -0.3,-0.31z"/>
      <path class="fil1" d="M25.51 29.26l-4.28 0c-0.17,0 -0.31,0.14 -0.31,0.31l0 3.7c0,0.17 0.14,0.3 0.31,0.3l4.28 0c0.16,0 0.3,-0.13 0.3,-0.3l0 -3.7c0,-0.17 -0.14,-0.31 -0.3,-0.31z"/>
      <path class="fil1" d="M32.48 29.26l-4.27 0c-0.17,0 -0.31,0.14 -0.31,0.31l0 3.7c0,0.17 0.14,0.3 0.31,0.3l4.27 0c0.17,0 0.31,-0.13 0.31,-0.3l0 -3.7c0,-0.17 -0.14,-0.31 -0.31,-0.31z"/>
     </g>
    </g>
   </g>
   <g>
   </g>
   <g>
   </g>
   <g>
   </g>
   <g>
   </g>
   <g>
   </g>
   <g>
   </g>
   <g>
   </g>
   <g>
   </g>
   <g>
   </g>
   <g>
   </g>
   <g>
   </g>
   <g>
   </g>
   <g>
   </g>
   <g>
   </g>
   <g>
   </g>
  </g>
 </g>
</svg>
