<?xml version="1.0" encoding="UTF-8"?>
<!DOCTYPE svg PUBLIC "-//W3C//DTD SVG 1.1//EN" "http://www.w3.org/Graphics/SVG/1.1/DTD/svg11.dtd">
<!-- Creator: CorelDRAW 2019 (64-Bit) -->
<svg xmlns="http://www.w3.org/2000/svg" xml:space="preserve" width="48px" height="32px" version="1.1" style="shape-rendering:geometricPrecision; text-rendering:geometricPrecision; image-rendering:optimizeQuality; fill-rule:evenodd; clip-rule:evenodd"
viewBox="0 0 48 32"
 xmlns:xlink="http://www.w3.org/1999/xlink">
 <defs>
  <style type="text/css">
   <![CDATA[
    .fil0 {fill:#666666}
   ]]>
  </style>
 </defs>
 <g id="Layer_x0020_1">
  <metadata id="CorelCorpID_0Corel-Layer"/>
  <g id="_1936844725520">
   <g>
    <g>
     <path class="fil0" d="M43.75 1.33l-39.5 0c-1.24,0 -2.25,1.02 -2.25,2.26l0 24.82c0,1.24 1.01,2.26 2.25,2.26l39.5 0c1.24,0 2.25,-1.02 2.25,-2.26l0 -24.82c0,-1.24 -1.01,-2.26 -2.25,-2.26zm-0.85 1.69l-17.6 13.21c-0.32,0.24 -0.81,0.39 -1.3,0.39 -0.49,0 -0.98,-0.15 -1.3,-0.39l-17.6 -13.21 37.8 0zm-9.4 14.08l9.59 11.84c0.01,0.01 0.02,0.02 0.03,0.03l-38.24 0.01c0.01,-0.02 0.02,-0.02 0.03,-0.04l9.59 -11.84c0.3,-0.37 0.24,-0.9 -0.12,-1.19 -0.37,-0.3 -0.9,-0.24 -1.19,0.12l-9.5 11.73 0 -23.68 18 13.5c0.67,0.5 1.5,0.73 2.31,0.73 0.81,0 1.64,-0.23 2.31,-0.73l18 -13.5 0 23.68 -9.5 -11.73c-0.29,-0.36 -0.82,-0.42 -1.19,-0.12 -0.36,0.29 -0.42,0.82 -0.12,1.19z"/>
    </g>
   </g>
   <g>
   </g>
   <g>
   </g>
   <g>
   </g>
   <g>
   </g>
   <g>
   </g>
   <g>
   </g>
   <g>
   </g>
   <g>
   </g>
   <g>
   </g>
   <g>
   </g>
   <g>
   </g>
   <g>
   </g>
   <g>
   </g>
   <g>
   </g>
   <g>
   </g>
  </g>
 </g>
</svg>
