<?xml version="1.0" encoding="UTF-8"?>
<!DOCTYPE svg PUBLIC "-//W3C//DTD SVG 1.1//EN" "http://www.w3.org/Graphics/SVG/1.1/DTD/svg11.dtd">
<!-- Creator: CorelDRAW 2019 (64-Bit) -->
<svg xmlns="http://www.w3.org/2000/svg" xml:space="preserve" width="32px" height="34px" version="1.1" style="shape-rendering:geometricPrecision; text-rendering:geometricPrecision; image-rendering:optimizeQuality; fill-rule:evenodd; clip-rule:evenodd"
viewBox="0 0 32 34"
 xmlns:xlink="http://www.w3.org/1999/xlink"
 enable-background="new 0 0 24 24">
 <defs>
  <style type="text/css">
   <![CDATA[
    .fil0 {fill:#999999}
   ]]>
  </style>
 </defs>
 <g id="Layer_x0020_1">
  <metadata id="CorelCorpID_0Corel-Layer"/>
  <g id="_1934996652912">
   <path class="fil0" d="M25 33l-18 0c-1.65,0 -3,-1.34 -3,-3l0 -14c0,-1.65 1.35,-3 3,-3l18 0c1.65,0 3,1.35 3,3l0 14c0,1.66 -1.35,3 -3,3l0 0zm-18 -18c-0.55,0 -1,0.45 -1,1l0 14c0,0.55 0.45,1 1,1l18 0c0.55,0 1,-0.45 1,-1l0 -14c0,-0.55 -0.45,-1 -1,-1l-18 0z"/>
   <path class="fil0" d="M23 15c-0.55,0 -1,-0.45 -1,-1l0 -5c0,-3.31 -2.69,-6 -6,-6 -3.31,0 -6,2.69 -6,6l0 5c0,0.55 -0.45,1 -1,1 -0.55,0 -1,-0.45 -1,-1l0 -5c0,-4.41 3.59,-8 8,-8 4.41,0 8,3.59 8,8l0 5c0,0.55 -0.45,1 -1,1l0 0z"/>
   <path class="fil0" d="M16 23.67c-1.47,0 -2.67,-1.2 -2.67,-2.67 0,-1.47 1.2,-2.67 2.67,-2.67 1.47,0 2.67,1.2 2.67,2.67 0,1.47 -1.2,2.67 -2.67,2.67zm0 -3.34c-0.37,0 -0.67,0.3 -0.67,0.67 0,0.37 0.3,0.67 0.67,0.67 0.37,0 0.67,-0.3 0.67,-0.67 0,-0.37 -0.3,-0.67 -0.67,-0.67z"/>
   <path class="fil0" d="M16 27.67c-0.55,0 -1,-0.45 -1,-1l0 -3.67c0,-0.55 0.45,-1 1,-1 0.55,0 1,0.45 1,1l0 3.67c0,0.55 -0.45,1 -1,1z"/>
  </g>
 </g>
</svg>
