<?xml version="1.0" encoding="UTF-8"?>
<!DOCTYPE svg PUBLIC "-//W3C//DTD SVG 1.1//EN" "http://www.w3.org/Graphics/SVG/1.1/DTD/svg11.dtd">
<!-- Creator: CorelDRAW 2019 (64-Bit) -->
<svg xmlns="http://www.w3.org/2000/svg" xml:space="preserve" width="38px" height="38px" version="1.1" style="shape-rendering:geometricPrecision; text-rendering:geometricPrecision; image-rendering:optimizeQuality; fill-rule:evenodd; clip-rule:evenodd"
viewBox="0 0 38 38"
 xmlns:xlink="http://www.w3.org/1999/xlink">
 <defs>
  <style type="text/css">
   <![CDATA[
    .fil0 {fill:#B3B3B3}
   ]]>
  </style>
 </defs>
 <g id="Layer_x0020_1">
  <metadata id="CorelCorpID_0Corel-Layer"/>
  <g id="_1936796787296">
   <g>
    <path class="fil0" d="M23.97 20.28l-20.69 0c-0.64,0 -1.28,-0.48 -1.28,-1.28 0,-0.8 0.48,-1.28 1.28,-1.28l20.69 0c0.64,0 1.28,0.48 1.28,1.28 0,0.8 -0.64,1.28 -1.28,1.28z"/>
   </g>
   <g>
    <path class="fil0" d="M20.44 25.58c-0.32,0 -0.64,-0.17 -0.8,-0.33 -0.48,-0.48 -0.48,-1.28 0,-1.76l4.49 -4.49 -4.49 -4.49c-0.48,-0.48 -0.48,-1.28 0,-1.76 0.48,-0.49 1.28,-0.49 1.77,0l5.29 5.45c0.48,0.48 0.48,1.28 0,1.76l-5.29 5.3c-0.49,0.15 -0.81,0.32 -0.97,0.32l0 0z"/>
   </g>
   <g>
    <path class="fil0" d="M24.45 35.52l-0.16 0c-7.05,0 -10.58,-2.73 -11.06,-9.14 0,-0.64 0.48,-1.29 1.12,-1.29 0.64,0 1.28,0.49 1.28,1.13 0.48,4.97 2.89,6.89 8.82,6.89l0.16 0c6.58,0 8.82,-2.24 8.82,-8.82l0 -3.69c0,-0.64 0.49,-1.28 1.29,-1.28 0.8,0 1.28,0.48 1.28,1.28l0 3.69c-0.16,7.86 -3.53,11.23 -11.55,11.23l0 0z"/>
   </g>
   <g>
    <path class="fil0" d="M34.56 14.99c-0.64,0 -1.29,-0.48 -1.29,-1.28 0,-6.58 -2.24,-8.82 -8.82,-8.82l-0.16 0c-5.93,0 -8.34,1.92 -8.82,7.05 0,0.65 -0.64,1.13 -1.28,1.13 -0.64,0 -1.12,-0.65 -1.12,-1.29 0.48,-6.41 4.01,-9.3 11.22,-9.3l0.16 0c7.86,0 11.23,3.37 11.23,11.23 0.16,0.8 -0.48,1.28 -1.12,1.28z"/>
   </g>
  </g>
 </g>
</svg>
