<?xml version="1.0" encoding="UTF-8"?>
<!DOCTYPE svg PUBLIC "-//W3C//DTD SVG 1.1//EN" "http://www.w3.org/Graphics/SVG/1.1/DTD/svg11.dtd">
<!-- Creator: CorelDRAW 2019 (64-Bit) -->
<svg xmlns="http://www.w3.org/2000/svg" xml:space="preserve" width="56px" height="28px" version="1.1" style="shape-rendering:geometricPrecision; text-rendering:geometricPrecision; image-rendering:optimizeQuality; fill-rule:evenodd; clip-rule:evenodd"
viewBox="0 0 56 28"
 xmlns:xlink="http://www.w3.org/1999/xlink">
 <defs>
  <style type="text/css">
   <![CDATA[
    .fil0 {fill:#333333}
   ]]>
  </style>
 </defs>
 <g id="Layer_x0020_1">
  <metadata id="CorelCorpID_0Corel-Layer"/>
  <g id="_1936836698432">
   <g>
    <g id="Menu_1_">
     <path class="fil0" d="M3.62 4.25l48.76 0c0.89,0 1.62,-0.73 1.62,-1.63 0,-0.89 -0.73,-1.62 -1.62,-1.62l-48.76 0c-0.89,0 -1.62,0.73 -1.62,1.63 0,0.89 0.73,1.62 1.62,1.62z"/>
     <path class="fil0" d="M52.38 12.37l-48.76 0c-0.89,0 -1.62,0.73 -1.62,1.63 0,0.9 0.73,1.63 1.62,1.63l48.76 0c0.89,0 1.62,-0.73 1.62,-1.63 0,-0.9 -0.73,-1.63 -1.62,-1.63z"/>
     <path class="fil0" d="M52.38 23.75l-32.51 0c-0.89,0 -1.62,0.73 -1.62,1.63 0,0.89 0.73,1.62 1.62,1.62l32.51 0c0.89,0 1.62,-0.73 1.62,-1.63 0,-0.89 -0.73,-1.62 -1.62,-1.62z"/>
    </g>
    <g>
    </g>
    <g>
    </g>
    <g>
    </g>
    <g>
    </g>
    <g>
    </g>
    <g>
    </g>
   </g>
   <g>
   </g>
   <g>
   </g>
   <g>
   </g>
   <g>
   </g>
   <g>
   </g>
   <g>
   </g>
   <g>
   </g>
   <g>
   </g>
   <g>
   </g>
   <g>
   </g>
   <g>
   </g>
   <g>
   </g>
   <g>
   </g>
   <g>
   </g>
   <g>
   </g>
  </g>
 </g>
</svg>
