<?xml version="1.0" encoding="UTF-8"?>
<!DOCTYPE svg PUBLIC "-//W3C//DTD SVG 1.1//EN" "http://www.w3.org/Graphics/SVG/1.1/DTD/svg11.dtd">
<!-- Creator: CorelDRAW 2019 (64-Bit) -->
<svg xmlns="http://www.w3.org/2000/svg" xml:space="preserve" width="32px" height="34px" version="1.1" style="shape-rendering:geometricPrecision; text-rendering:geometricPrecision; image-rendering:optimizeQuality; fill-rule:evenodd; clip-rule:evenodd"
viewBox="0 0 32 34"
 xmlns:xlink="http://www.w3.org/1999/xlink">
 <defs>
  <style type="text/css">
   <![CDATA[
    .fil0 {fill:#999999}
   ]]>
  </style>
 </defs>
 <g id="Layer_x0020_1">
  <metadata id="CorelCorpID_0Corel-Layer"/>
  <g id="_1934983942272">
   <g>
    <g>
     <path class="fil0" d="M19.46 13.54c-0.24,-0.24 -0.63,-0.24 -0.87,0 -0.24,0.24 -0.24,0.63 0,0.87 0.69,0.69 1.08,1.61 1.08,2.59 0,2.02 -1.65,3.67 -3.67,3.67 -0.98,0 -1.9,-0.39 -2.59,-1.08 -0.24,-0.24 -0.63,-0.24 -0.87,0 -0.23,0.24 -0.23,0.63 0,0.87 0.93,0.92 2.15,1.43 3.46,1.43 2.7,0 4.89,-2.19 4.89,-4.89 0,-1.31 -0.51,-2.54 -1.43,-3.46z"/>
    </g>
   </g>
   <g>
    <g>
     <path class="fil0" d="M16.85 12.2c-0.27,-0.05 -0.56,-0.09 -0.85,-0.09 -2.7,0 -4.89,2.19 -4.89,4.89 0,0.29 0.04,0.57 0.09,0.85 0.05,0.3 0.31,0.51 0.6,0.51 0.03,0 0.07,-0.01 0.1,-0.01 0.34,-0.06 0.56,-0.38 0.5,-0.71 -0.04,-0.21 -0.07,-0.42 -0.07,-0.64 0,-2.02 1.65,-3.67 3.67,-3.67 0.22,0 0.43,0.03 0.64,0.07 0.32,0.06 0.65,-0.17 0.71,-0.5 0.06,-0.33 -0.17,-0.65 -0.5,-0.7z"/>
    </g>
   </g>
   <g>
    <g>
     <path class="fil0" d="M30.52 16.6c-0.14,-0.16 -3.44,-4.02 -8,-6.38 -0.3,-0.16 -0.67,-0.04 -0.83,0.26 -0.15,0.3 -0.03,0.67 0.27,0.83 3.51,1.82 6.32,4.65 7.27,5.69 -1.45,1.58 -7.19,7.33 -13.23,7.33 -2.05,0 -4.12,-0.49 -6.15,-1.47 -0.3,-0.15 -0.66,-0.02 -0.81,0.29 -0.15,0.3 -0.02,0.66 0.28,0.81 2.2,1.06 4.44,1.6 6.68,1.6 7.53,0 14.24,-7.83 14.52,-8.16 0.2,-0.23 0.19,-0.57 0,-0.8z"/>
    </g>
   </g>
   <g>
    <g>
     <path class="fil0" d="M20.01 9.15c-1.39,-0.47 -2.74,-0.71 -4.01,-0.71 -7.53,0 -14.24,7.83 -14.52,8.16 -0.18,0.22 -0.2,0.52 -0.04,0.75 0.09,0.12 2.11,2.99 5.61,5.31 0.1,0.07 0.22,0.11 0.34,0.11 0.19,0 0.39,-0.1 0.5,-0.28 0.19,-0.28 0.12,-0.66 -0.17,-0.84 -2.57,-1.71 -4.33,-3.78 -4.99,-4.62 1.41,-1.52 7.18,-7.36 13.27,-7.36 1.14,0 2.36,0.21 3.62,0.64 0.32,0.11 0.67,-0.07 0.78,-0.39 0.1,-0.32 -0.07,-0.66 -0.39,-0.77z"/>
    </g>
   </g>
   <g>
    <g>
     <path class="fil0" d="M26.82 6.18c-0.24,-0.24 -0.62,-0.24 -0.86,0l-20.78 20.78c-0.24,0.24 -0.24,0.62 0,0.86 0.12,0.12 0.27,0.18 0.43,0.18 0.16,0 0.31,-0.06 0.43,-0.18l20.78 -20.78c0.24,-0.24 0.24,-0.62 0,-0.86z"/>
    </g>
   </g>
   <g>
   </g>
   <g>
   </g>
   <g>
   </g>
   <g>
   </g>
   <g>
   </g>
   <g>
   </g>
   <g>
   </g>
   <g>
   </g>
   <g>
   </g>
   <g>
   </g>
   <g>
   </g>
   <g>
   </g>
   <g>
   </g>
   <g>
   </g>
   <g>
   </g>
  </g>
 </g>
</svg>
