<?xml version="1.0" encoding="UTF-8"?>
<!DOCTYPE svg PUBLIC "-//W3C//DTD SVG 1.1//EN" "http://www.w3.org/Graphics/SVG/1.1/DTD/svg11.dtd">
<!-- Creator: CorelDRAW 2019 (64-Bit) -->
<svg xmlns="http://www.w3.org/2000/svg" xml:space="preserve" width="38px" height="38px" version="1.1" style="shape-rendering:geometricPrecision; text-rendering:geometricPrecision; image-rendering:optimizeQuality; fill-rule:evenodd; clip-rule:evenodd"
viewBox="0 0 38 38"
 xmlns:xlink="http://www.w3.org/1999/xlink">
 <defs>
  <style type="text/css">
   <![CDATA[
    .fil0 {fill:#BBBBBB}
   ]]>
  </style>
   <clipPath id="id0">
    <rect x="2626.11" y="-745.03" width="1366.05" height="768.03"/>
   </clipPath>
 </defs>
 <g id="Layer_x0020_1">
  <metadata id="CorelCorpID_0Corel-Layer"/>
  <g style="clip-path:url(#id0)">
   <image x="2626.11" y="-745.03" width="1366.06" height="768.03" xlink:href="support_Images\support_ImgID1.png"/>
  </g>
  <g id="_1936847053936">
   <g>
    <g>
     <g>
      <path class="fil0" d="M21.54 26.77c-0.39,0.04 -0.78,-0.05 -1.11,-0.25 -0.25,-0.25 -0.37,-0.6 -0.32,-0.95 0.01,-0.29 0.04,-0.58 0.1,-0.86 0.06,-0.33 0.13,-0.65 0.22,-0.97l1.02 -3.5c0.11,-0.35 0.18,-0.71 0.21,-1.07 0,-0.38 0.05,-0.65 0.05,-0.81 0.02,-0.69 -0.27,-1.35 -0.8,-1.8 -0.65,-0.5 -1.46,-0.75 -2.28,-0.69 -0.59,0 -1.17,0.1 -1.73,0.28 -0.61,0.19 -1.25,0.42 -1.92,0.68l-0.3 1.14c0.2,-0.07 0.44,-0.14 0.72,-0.23 0.26,-0.08 0.54,-0.12 0.81,-0.12 0.39,-0.04 0.77,0.05 1.1,0.27 0.22,0.26 0.32,0.6 0.28,0.94 0,0.29 -0.03,0.58 -0.09,0.86 -0.06,0.31 -0.14,0.62 -0.23,0.96l-1.03 3.53c-0.08,0.32 -0.15,0.65 -0.2,0.99 -0.04,0.28 -0.06,0.57 -0.06,0.86 0,0.7 0.31,1.36 0.86,1.79 0.66,0.51 1.49,0.76 2.32,0.71 0.58,0.01 1.17,-0.07 1.73,-0.25 0.48,-0.17 1.14,-0.41 1.96,-0.72l0.27 -1.09c-0.22,0.1 -0.45,0.17 -0.68,0.23 -0.3,0.06 -0.6,0.09 -0.9,0.07z"/>
      <path class="fil0" d="M22.62 10.15c-0.47,-0.43 -1.09,-0.67 -1.73,-0.65 -0.64,-0.01 -1.25,0.22 -1.72,0.65 -0.87,0.74 -0.96,2.05 -0.22,2.91 0.07,0.08 0.14,0.15 0.22,0.21 0.98,0.88 2.47,0.88 3.45,0 0.86,-0.75 0.95,-2.06 0.2,-2.92 -0.06,-0.07 -0.13,-0.14 -0.2,-0.2z"/>
      <path class="fil0" d="M19 0c-10.49,0 -19,8.51 -19,19 0,10.49 8.51,19 19,19 10.49,0 19,-8.51 19,-19 0,-10.49 -8.51,-19 -19,-19zm0 36.27c-9.54,0 -17.27,-7.73 -17.27,-17.27 0,-9.54 7.73,-17.27 17.27,-17.27 9.54,0 17.27,7.73 17.27,17.27 0,9.54 -7.73,17.27 -17.27,17.27z"/>
     </g>
    </g>
   </g>
   <g>
   </g>
   <g>
   </g>
   <g>
   </g>
   <g>
   </g>
   <g>
   </g>
   <g>
   </g>
   <g>
   </g>
   <g>
   </g>
   <g>
   </g>
   <g>
   </g>
   <g>
   </g>
   <g>
   </g>
   <g>
   </g>
   <g>
   </g>
   <g>
   </g>
  </g>
 </g>
</svg>
