<svg width="159" height="154" viewBox="0 0 159 154" fill="none" xmlns="http://www.w3.org/2000/svg">
<path d="M57.7167 153.396C59.3161 153.829 60.9633 152.883 61.3959 151.283C61.8285 149.684 60.8827 148.037 59.2833 147.604L57.7167 153.396ZM76.5 40L76.5 43L82.5 43L82.5 40L76.5 40ZM31.5 17.5L33.236 19.9467L31.5 17.5ZM59.2833 147.604C39.6308 142.288 6 123.189 5.99999 77.5L-6.38186e-06 77.5C-2.05351e-06 127.011 36.7025 147.712 57.7167 153.396L59.2833 147.604ZM76.5 12.721L76.5 40L82.5 40L82.5 12.721L76.5 12.721ZM5.99999 77.5C5.99999 53.3486 17.0797 31.41 33.236 19.9467L29.764 15.0533C11.8232 27.7827 -8.64075e-06 51.6614 -6.38186e-06 77.5L5.99999 77.5ZM33.236 19.9467C47.9612 9.49881 59.8764 8.20412 70.1508 7.20493L69.57 1.23309C58.9804 2.26294 45.7869 3.68473 29.764 15.0533L33.236 19.9467ZM82.5 12.721C82.5 5.79996 76.2309 0.585327 69.57 1.23309L70.1508 7.20493C73.5147 6.87778 76.5 9.56985 76.5 12.721L82.5 12.721Z" fill="#00A39D"/>
<path d="M100.783 0.104071C99.1839 -0.328547 97.5367 0.617298 97.1041 2.21668C96.6715 3.81605 97.6173 5.46331 99.2167 5.89593L100.783 0.104071ZM82 120V117H76V120H82ZM127 136L125.264 133.553L127 136ZM88.6396 149.281L88.9299 152.267L88.6396 149.281ZM99.2167 5.89593C118.869 11.2118 152.5 30.3105 152.5 76H158.5C158.5 26.4895 121.797 5.78823 100.783 0.104071L99.2167 5.89593ZM82 140.779V120H76V140.779H82ZM152.5 76C152.5 100.151 141.42 122.09 125.264 133.553L128.736 138.447C146.677 125.717 158.5 101.839 158.5 76H152.5ZM125.264 133.553C110.539 144.001 98.6236 145.296 88.3492 146.295L88.9299 152.267C99.5196 151.237 112.713 149.815 128.736 138.447L125.264 133.553ZM76 140.779C76 147.7 82.269 152.915 88.9299 152.267L88.3492 146.295C84.9853 146.622 82 143.93 82 140.779H76Z" fill="#00A39D"/>
<path d="M95.4995 43.5009C88.3328 40.1676 77.031 40.287 68.4981 45.5014C59.5 51.0001 54 71.0014 70 76.5014C86 82.0014 100 81.0007 100 98.5007C100 116.001 85.5 120.5 74.5 119.001C66.7147 117.94 60.6673 114.167 58.5 113.001" stroke="#00A39D" stroke-width="6" stroke-linecap="round"/>
</svg>
