<svg width="151" height="149" viewBox="0 0 151 149" fill="none" xmlns="http://www.w3.org/2000/svg">
<path d="M151 18L121 0.679491V35.3205L151 18ZM140.649 40.3878V139H146.649V40.3878H140.649ZM136.649 143H10V149H136.649V143ZM6 139V104.817H0V139H6ZM10 100.817H42.0662V94.8175H10V100.817ZM52.0662 90.8175V64.9088H46.0662V90.8175H52.0662ZM56.0662 60.9087H88.1325V54.9087H56.0662V60.9087ZM98.1325 50.9087V25H92.1325V50.9087H98.1325ZM102.132 21H124V15H102.132V21ZM98.1325 25C98.1325 22.7909 99.9233 21 102.132 21V15C96.6096 15 92.1325 19.4772 92.1325 25H98.1325ZM88.1325 60.9087C93.6553 60.9087 98.1325 56.4316 98.1325 50.9087H92.1325C92.1325 53.1179 90.3416 54.9087 88.1325 54.9087V60.9087ZM52.0662 64.9088C52.0662 62.6996 53.8571 60.9087 56.0662 60.9087V54.9087C50.5434 54.9087 46.0662 59.3859 46.0662 64.9088H52.0662ZM42.0662 100.817C47.5891 100.817 52.0662 96.3403 52.0662 90.8175H46.0662C46.0662 93.0266 44.2754 94.8175 42.0662 94.8175V100.817ZM6 104.817C6 102.608 7.79086 100.817 10 100.817V94.8175C4.47715 94.8175 0 99.2946 0 104.817H6ZM10 143C7.79086 143 6 141.209 6 139H0C0 144.523 4.47715 149 10 149V143ZM140.649 139C140.649 141.209 138.858 143 136.649 143V149C142.172 149 146.649 144.523 146.649 139H140.649Z" fill="#00A39D"/>
</svg>
