<svg width="188" height="111" viewBox="0 0 188 111" fill="none" xmlns="http://www.w3.org/2000/svg">
<rect y="0.796875" width="16.3582" height="73.2396" rx="4" fill="#E2E2E2"/>
<rect x="48.9219" y="0.796875" width="16.3582" height="73.2396" rx="4" fill="#E2E2E2"/>
<rect x="73.3848" y="0.796875" width="16.3582" height="73.2396" rx="4" fill="#E02726"/>
<rect x="97.8438" y="0.796875" width="16.3582" height="73.2396" rx="4" fill="#FAFAFA"/>
<rect x="122.308" y="0.796875" width="16.3582" height="73.2396" rx="4" fill="#FAFAFA"/>
<rect x="146.771" y="0.796875" width="16.3582" height="73.2396" rx="4" fill="#FAFAFA"/>
<rect x="24.4629" y="0.796875" width="16.3582" height="73.2396" rx="4" fill="#E2E2E2"/>
<path d="M0.912 95.8516V90.2516H1.504V95.3396H4.64V95.8516H0.912ZM7.45244 95.8916C7.0471 95.8916 6.68177 95.8009 6.35644 95.6196C6.03644 95.4329 5.7831 95.1796 5.59644 94.8596C5.40977 94.5342 5.31644 94.1636 5.31644 93.7476C5.31644 93.3262 5.40977 92.9556 5.59644 92.6356C5.7831 92.3156 6.03644 92.0649 6.35644 91.8836C6.67644 91.7022 7.04177 91.6116 7.45244 91.6116C7.86844 91.6116 8.23644 91.7022 8.55644 91.8836C8.88177 92.0649 9.1351 92.3156 9.31644 92.6356C9.5031 92.9556 9.59644 93.3262 9.59644 93.7476C9.59644 94.1636 9.5031 94.5342 9.31644 94.8596C9.1351 95.1796 8.88177 95.4329 8.55644 95.6196C8.2311 95.8009 7.8631 95.8916 7.45244 95.8916ZM7.45244 95.3876C7.75644 95.3876 8.02577 95.3209 8.26044 95.1876C8.4951 95.0489 8.6791 94.8569 8.81244 94.6116C8.9511 94.3609 9.02044 94.0729 9.02044 93.7476C9.02044 93.4169 8.9511 93.1289 8.81244 92.8836C8.6791 92.6382 8.4951 92.4489 8.26044 92.3156C8.02577 92.1769 7.7591 92.1076 7.46044 92.1076C7.16177 92.1076 6.8951 92.1769 6.66044 92.3156C6.42577 92.4489 6.2391 92.6382 6.10044 92.8836C5.96177 93.1289 5.89244 93.4169 5.89244 93.7476C5.89244 94.0729 5.96177 94.3609 6.10044 94.6116C6.2391 94.8569 6.42577 95.0489 6.66044 95.1876C6.8951 95.3209 7.1591 95.3876 7.45244 95.3876ZM11.7949 95.8516L10.2109 91.6516H10.7549L12.1949 95.5476H11.9469L13.4269 91.6516H13.9149L15.3789 95.5476H15.1309L16.5949 91.6516H17.1149L15.5229 95.8516H14.9869L13.5789 92.1876H13.7469L12.3309 95.8516H11.7949ZM0.912 105.852V100.252H1.4L3.96 104.62H3.704L6.24 100.252H6.728V105.852H6.16V101.14H6.296L3.96 105.14H3.68L1.328 101.14H1.48V105.852H0.912ZM10.4446 105.892C10.0393 105.892 9.67396 105.801 9.34863 105.62C9.02863 105.433 8.77529 105.18 8.58863 104.86C8.40196 104.534 8.30863 104.164 8.30863 103.748C8.30863 103.326 8.40196 102.956 8.58863 102.636C8.77529 102.316 9.02863 102.065 9.34863 101.884C9.66863 101.702 10.034 101.612 10.4446 101.612C10.8606 101.612 11.2286 101.702 11.5486 101.884C11.874 102.065 12.1273 102.316 12.3086 102.636C12.4953 102.956 12.5886 103.326 12.5886 103.748C12.5886 104.164 12.4953 104.534 12.3086 104.86C12.1273 105.18 11.874 105.433 11.5486 105.62C11.2233 105.801 10.8553 105.892 10.4446 105.892ZM10.4446 105.388C10.7486 105.388 11.018 105.321 11.2526 105.188C11.4873 105.049 11.6713 104.857 11.8046 104.612C11.9433 104.361 12.0126 104.073 12.0126 103.748C12.0126 103.417 11.9433 103.129 11.8046 102.884C11.6713 102.638 11.4873 102.449 11.2526 102.316C11.018 102.177 10.7513 102.108 10.4526 102.108C10.154 102.108 9.88729 102.177 9.65263 102.316C9.41796 102.449 9.23129 102.638 9.09263 102.884C8.95396 103.129 8.88463 103.417 8.88463 103.748C8.88463 104.073 8.95396 104.361 9.09263 104.612C9.23129 104.857 9.41796 105.049 9.65263 105.188C9.88729 105.321 10.1513 105.388 10.4446 105.388ZM15.3763 105.892C14.9816 105.892 14.6776 105.785 14.4643 105.572C14.2509 105.358 14.1443 105.057 14.1443 104.668V100.724H14.7123V104.636C14.7123 104.881 14.7736 105.07 14.8963 105.204C15.0243 105.337 15.2056 105.404 15.4403 105.404C15.6909 105.404 15.8989 105.332 16.0643 105.188L16.2643 105.596C16.1523 105.697 16.0163 105.772 15.8563 105.82C15.7016 105.868 15.5416 105.892 15.3763 105.892ZM13.3923 102.124V101.652H15.9923V102.124H13.3923ZM17.5982 105.852V101.652H18.1662V105.852H17.5982ZM17.8862 100.724C17.7689 100.724 17.6702 100.684 17.5902 100.604C17.5102 100.524 17.4702 100.428 17.4702 100.316C17.4702 100.204 17.5102 100.11 17.5902 100.036C17.6702 99.9556 17.7689 99.9156 17.8862 99.9156C18.0036 99.9156 18.1022 99.9529 18.1822 100.028C18.2622 100.102 18.3022 100.196 18.3022 100.308C18.3022 100.425 18.2622 100.524 18.1822 100.604C18.1076 100.684 18.0089 100.724 17.8862 100.724ZM21.1267 105.852L19.2627 101.652H19.8547L21.5667 105.548H21.2867L23.0227 101.652H23.5827L21.7107 105.852H21.1267ZM27.1896 105.852V104.924L27.1656 104.772V103.22C27.1656 102.862 27.0643 102.588 26.8616 102.396C26.6643 102.204 26.3683 102.108 25.9736 102.108C25.7016 102.108 25.443 102.153 25.1976 102.244C24.9523 102.334 24.7443 102.454 24.5736 102.604L24.3176 102.18C24.531 101.998 24.787 101.86 25.0856 101.764C25.3843 101.662 25.699 101.612 26.0296 101.612C26.5736 101.612 26.9923 101.748 27.2856 102.02C27.5843 102.286 27.7336 102.694 27.7336 103.244V105.852H27.1896ZM25.7416 105.892C25.427 105.892 25.1523 105.841 24.9176 105.74C24.6883 105.633 24.5123 105.489 24.3896 105.308C24.267 105.121 24.2056 104.908 24.2056 104.668C24.2056 104.449 24.2563 104.252 24.3576 104.076C24.4643 103.894 24.635 103.75 24.8696 103.644C25.1096 103.532 25.4296 103.476 25.8296 103.476H27.2776V103.9H25.8456C25.4403 103.9 25.1576 103.972 24.9976 104.116C24.843 104.26 24.7656 104.438 24.7656 104.652C24.7656 104.892 24.859 105.084 25.0456 105.228C25.2323 105.372 25.4936 105.444 25.8296 105.444C26.1496 105.444 26.4243 105.372 26.6536 105.228C26.8883 105.078 27.059 104.865 27.1656 104.588L27.2936 104.98C27.187 105.257 27.0003 105.478 26.7336 105.644C26.4723 105.809 26.1416 105.892 25.7416 105.892ZM30.9044 105.892C30.5097 105.892 30.2057 105.785 29.9924 105.572C29.779 105.358 29.6724 105.057 29.6724 104.668V100.724H30.2404V104.636C30.2404 104.881 30.3017 105.07 30.4244 105.204C30.5524 105.337 30.7337 105.404 30.9684 105.404C31.219 105.404 31.427 105.332 31.5924 105.188L31.7924 105.596C31.6804 105.697 31.5444 105.772 31.3844 105.82C31.2297 105.868 31.0697 105.892 30.9044 105.892ZM28.9204 102.124V101.652H31.5204V102.124H28.9204ZM33.1264 105.852V101.652H33.6944V105.852H33.1264ZM33.4144 100.724C33.297 100.724 33.1984 100.684 33.1184 100.604C33.0384 100.524 32.9984 100.428 32.9984 100.316C32.9984 100.204 33.0384 100.11 33.1184 100.036C33.1984 99.9556 33.297 99.9156 33.4144 99.9156C33.5317 99.9156 33.6304 99.9529 33.7104 100.028C33.7904 100.102 33.8304 100.196 33.8304 100.308C33.8304 100.425 33.7904 100.524 33.7104 100.604C33.6357 100.684 33.537 100.724 33.4144 100.724ZM37.2868 105.892C36.8815 105.892 36.5161 105.801 36.1908 105.62C35.8708 105.433 35.6175 105.18 35.4308 104.86C35.2441 104.534 35.1508 104.164 35.1508 103.748C35.1508 103.326 35.2441 102.956 35.4308 102.636C35.6175 102.316 35.8708 102.065 36.1908 101.884C36.5108 101.702 36.8761 101.612 37.2868 101.612C37.7028 101.612 38.0708 101.702 38.3908 101.884C38.7161 102.065 38.9695 102.316 39.1508 102.636C39.3375 102.956 39.4308 103.326 39.4308 103.748C39.4308 104.164 39.3375 104.534 39.1508 104.86C38.9695 105.18 38.7161 105.433 38.3908 105.62C38.0655 105.801 37.6975 105.892 37.2868 105.892ZM37.2868 105.388C37.5908 105.388 37.8601 105.321 38.0948 105.188C38.3295 105.049 38.5135 104.857 38.6468 104.612C38.7855 104.361 38.8548 104.073 38.8548 103.748C38.8548 103.417 38.7855 103.129 38.6468 102.884C38.5135 102.638 38.3295 102.449 38.0948 102.316C37.8601 102.177 37.5935 102.108 37.2948 102.108C36.9961 102.108 36.7295 102.177 36.4948 102.316C36.2601 102.449 36.0735 102.638 35.9348 102.884C35.7961 103.129 35.7268 103.417 35.7268 103.748C35.7268 104.073 35.7961 104.361 35.9348 104.612C36.0735 104.857 36.2601 105.049 36.4948 105.188C36.7295 105.321 36.9935 105.388 37.2868 105.388ZM43.0344 101.612C43.3758 101.612 43.6744 101.678 43.9304 101.812C44.1918 101.94 44.3944 102.137 44.5384 102.404C44.6878 102.67 44.7624 103.006 44.7624 103.412V105.852H44.1944V103.468C44.1944 103.025 44.0824 102.692 43.8584 102.468C43.6398 102.238 43.3304 102.124 42.9304 102.124C42.6318 102.124 42.3704 102.185 42.1464 102.308C41.9278 102.425 41.7571 102.598 41.6344 102.828C41.5171 103.052 41.4584 103.324 41.4584 103.644V105.852H40.8904V101.652H41.4344V102.804L41.3464 102.588C41.4798 102.284 41.6931 102.046 41.9864 101.876C42.2798 101.7 42.6291 101.612 43.0344 101.612Z" fill="#818181"/>
<path d="M171.603 90.2516H172.187V95.8516H171.603V90.2516ZM168.099 95.8516H167.507V90.2516H168.099V95.8516ZM171.659 93.2676H168.035V92.7476H171.659V93.2676ZM174.194 95.8516V91.6516H174.762V95.8516H174.194ZM174.482 90.7236C174.365 90.7236 174.266 90.6836 174.186 90.6036C174.106 90.5236 174.066 90.4276 174.066 90.3156C174.066 90.2036 174.106 90.1102 174.186 90.0356C174.266 89.9556 174.365 89.9156 174.482 89.9156C174.6 89.9156 174.698 89.9529 174.778 90.0276C174.858 90.1022 174.898 90.1956 174.898 90.3076C174.898 90.4249 174.858 90.5236 174.778 90.6036C174.704 90.6836 174.605 90.7236 174.482 90.7236ZM178.435 97.4436C178.051 97.4436 177.683 97.3876 177.331 97.2756C176.979 97.1636 176.694 97.0036 176.475 96.7956L176.763 96.3636C176.96 96.5396 177.203 96.6782 177.491 96.7796C177.784 96.8862 178.094 96.9396 178.419 96.9396C178.952 96.9396 179.344 96.8142 179.595 96.5636C179.846 96.3182 179.971 95.9342 179.971 95.4116V94.3636L180.051 93.6436L179.995 92.9236V91.6516H180.539V95.3396C180.539 96.0649 180.36 96.5956 180.003 96.9316C179.651 97.2729 179.128 97.4436 178.435 97.4436ZM178.331 95.6916C177.931 95.6916 177.571 95.6062 177.251 95.4356C176.931 95.2596 176.678 95.0169 176.491 94.7076C176.31 94.3982 176.219 94.0436 176.219 93.6436C176.219 93.2436 176.31 92.8916 176.491 92.5876C176.678 92.2782 176.931 92.0382 177.251 91.8676C177.571 91.6969 177.931 91.6116 178.331 91.6116C178.704 91.6116 179.04 91.6889 179.339 91.8436C179.638 91.9982 179.875 92.2276 180.051 92.5316C180.227 92.8356 180.315 93.2062 180.315 93.6436C180.315 94.0809 180.227 94.4516 180.051 94.7556C179.875 95.0596 179.638 95.2916 179.339 95.4516C179.04 95.6116 178.704 95.6916 178.331 95.6916ZM178.387 95.1876C178.696 95.1876 178.971 95.1236 179.211 94.9956C179.451 94.8622 179.64 94.6809 179.779 94.4516C179.918 94.2169 179.987 93.9476 179.987 93.6436C179.987 93.3396 179.918 93.0729 179.779 92.8436C179.64 92.6142 179.451 92.4356 179.211 92.3076C178.971 92.1742 178.696 92.1076 178.387 92.1076C178.083 92.1076 177.808 92.1742 177.563 92.3076C177.323 92.4356 177.134 92.6142 176.995 92.8436C176.862 93.0729 176.795 93.3396 176.795 93.6436C176.795 93.9476 176.862 94.2169 176.995 94.4516C177.134 94.6809 177.323 94.8622 177.563 94.9956C177.808 95.1236 178.083 95.1876 178.387 95.1876ZM184.563 91.6116C184.905 91.6116 185.203 91.6782 185.459 91.8116C185.721 91.9396 185.923 92.1369 186.067 92.4036C186.217 92.6702 186.291 93.0062 186.291 93.4116V95.8516H185.723V93.4676C185.723 93.0249 185.611 92.6916 185.387 92.4676C185.169 92.2382 184.859 92.1236 184.459 92.1236C184.161 92.1236 183.899 92.1849 183.675 92.3076C183.457 92.4249 183.286 92.5982 183.163 92.8276C183.046 93.0516 182.987 93.3236 182.987 93.6436V95.8516H182.419V89.9156H182.987V92.8036L182.875 92.5876C183.009 92.2836 183.222 92.0462 183.515 91.8756C183.809 91.6996 184.158 91.6116 184.563 91.6116ZM142.441 105.852V100.252H142.929L145.489 104.62H145.233L147.769 100.252H148.257V105.852H147.689V101.14H147.825L145.489 105.14H145.209L142.857 101.14H143.009V105.852H142.441ZM151.974 105.892C151.568 105.892 151.203 105.801 150.878 105.62C150.558 105.433 150.304 105.18 150.118 104.86C149.931 104.534 149.838 104.164 149.838 103.748C149.838 103.326 149.931 102.956 150.118 102.636C150.304 102.316 150.558 102.065 150.878 101.884C151.198 101.702 151.563 101.612 151.974 101.612C152.39 101.612 152.758 101.702 153.078 101.884C153.403 102.065 153.656 102.316 153.838 102.636C154.024 102.956 154.118 103.326 154.118 103.748C154.118 104.164 154.024 104.534 153.838 104.86C153.656 105.18 153.403 105.433 153.078 105.62C152.752 105.801 152.384 105.892 151.974 105.892ZM151.974 105.388C152.278 105.388 152.547 105.321 152.782 105.188C153.016 105.049 153.2 104.857 153.334 104.612C153.472 104.361 153.542 104.073 153.542 103.748C153.542 103.417 153.472 103.129 153.334 102.884C153.2 102.638 153.016 102.449 152.782 102.316C152.547 102.177 152.28 102.108 151.982 102.108C151.683 102.108 151.416 102.177 151.182 102.316C150.947 102.449 150.76 102.638 150.622 102.884C150.483 103.129 150.414 103.417 150.414 103.748C150.414 104.073 150.483 104.361 150.622 104.612C150.76 104.857 150.947 105.049 151.182 105.188C151.416 105.321 151.68 105.388 151.974 105.388ZM156.905 105.892C156.511 105.892 156.207 105.785 155.993 105.572C155.78 105.358 155.673 105.057 155.673 104.668V100.724H156.241V104.636C156.241 104.881 156.303 105.07 156.425 105.204C156.553 105.337 156.735 105.404 156.969 105.404C157.22 105.404 157.428 105.332 157.593 105.188L157.793 105.596C157.681 105.697 157.545 105.772 157.385 105.82C157.231 105.868 157.071 105.892 156.905 105.892ZM154.921 102.124V101.652H157.521V102.124H154.921ZM159.127 105.852V101.652H159.695V105.852H159.127ZM159.415 100.724C159.298 100.724 159.199 100.684 159.119 100.604C159.039 100.524 158.999 100.428 158.999 100.316C158.999 100.204 159.039 100.11 159.119 100.036C159.199 99.9556 159.298 99.9156 159.415 99.9156C159.533 99.9156 159.631 99.9529 159.711 100.028C159.791 100.102 159.831 100.196 159.831 100.308C159.831 100.425 159.791 100.524 159.711 100.604C159.637 100.684 159.538 100.724 159.415 100.724ZM162.656 105.852L160.792 101.652H161.384L163.096 105.548H162.816L164.552 101.652H165.112L163.24 105.852H162.656ZM168.719 105.852V104.924L168.695 104.772V103.22C168.695 102.862 168.593 102.588 168.391 102.396C168.193 102.204 167.897 102.108 167.503 102.108C167.231 102.108 166.972 102.153 166.727 102.244C166.481 102.334 166.273 102.454 166.103 102.604L165.847 102.18C166.06 101.998 166.316 101.86 166.615 101.764C166.913 101.662 167.228 101.612 167.559 101.612C168.103 101.612 168.521 101.748 168.815 102.02C169.113 102.286 169.263 102.694 169.263 103.244V105.852H168.719ZM167.271 105.892C166.956 105.892 166.681 105.841 166.447 105.74C166.217 105.633 166.041 105.489 165.919 105.308C165.796 105.121 165.735 104.908 165.735 104.668C165.735 104.449 165.785 104.252 165.887 104.076C165.993 103.894 166.164 103.75 166.399 103.644C166.639 103.532 166.959 103.476 167.359 103.476H168.807V103.9H167.375C166.969 103.9 166.687 103.972 166.527 104.116C166.372 104.26 166.295 104.438 166.295 104.652C166.295 104.892 166.388 105.084 166.575 105.228C166.761 105.372 167.023 105.444 167.359 105.444C167.679 105.444 167.953 105.372 168.183 105.228C168.417 105.078 168.588 104.865 168.695 104.588L168.823 104.98C168.716 105.257 168.529 105.478 168.263 105.644C168.001 105.809 167.671 105.892 167.271 105.892ZM172.433 105.892C172.039 105.892 171.735 105.785 171.521 105.572C171.308 105.358 171.201 105.057 171.201 104.668V100.724H171.769V104.636C171.769 104.881 171.831 105.07 171.953 105.204C172.081 105.337 172.263 105.404 172.497 105.404C172.748 105.404 172.956 105.332 173.121 105.188L173.321 105.596C173.209 105.697 173.073 105.772 172.913 105.82C172.759 105.868 172.599 105.892 172.433 105.892ZM170.449 102.124V101.652H173.049V102.124H170.449ZM174.655 105.852V101.652H175.223V105.852H174.655ZM174.943 100.724C174.826 100.724 174.727 100.684 174.647 100.604C174.567 100.524 174.527 100.428 174.527 100.316C174.527 100.204 174.567 100.11 174.647 100.036C174.727 99.9556 174.826 99.9156 174.943 99.9156C175.061 99.9156 175.159 99.9529 175.239 100.028C175.319 100.102 175.359 100.196 175.359 100.308C175.359 100.425 175.319 100.524 175.239 100.604C175.165 100.684 175.066 100.724 174.943 100.724ZM178.816 105.892C178.41 105.892 178.045 105.801 177.72 105.62C177.4 105.433 177.146 105.18 176.96 104.86C176.773 104.534 176.68 104.164 176.68 103.748C176.68 103.326 176.773 102.956 176.96 102.636C177.146 102.316 177.4 102.065 177.72 101.884C178.04 101.702 178.405 101.612 178.816 101.612C179.232 101.612 179.6 101.702 179.92 101.884C180.245 102.065 180.498 102.316 180.68 102.636C180.866 102.956 180.96 103.326 180.96 103.748C180.96 104.164 180.866 104.534 180.68 104.86C180.498 105.18 180.245 105.433 179.92 105.62C179.594 105.801 179.226 105.892 178.816 105.892ZM178.816 105.388C179.12 105.388 179.389 105.321 179.624 105.188C179.858 105.049 180.042 104.857 180.176 104.612C180.314 104.361 180.384 104.073 180.384 103.748C180.384 103.417 180.314 103.129 180.176 102.884C180.042 102.638 179.858 102.449 179.624 102.316C179.389 102.177 179.122 102.108 178.824 102.108C178.525 102.108 178.258 102.177 178.024 102.316C177.789 102.449 177.602 102.638 177.464 102.884C177.325 103.129 177.256 103.417 177.256 103.748C177.256 104.073 177.325 104.361 177.464 104.612C177.602 104.857 177.789 105.049 178.024 105.188C178.258 105.321 178.522 105.388 178.816 105.388ZM184.563 101.612C184.905 101.612 185.203 101.678 185.459 101.812C185.721 101.94 185.923 102.137 186.067 102.404C186.217 102.67 186.291 103.006 186.291 103.412V105.852H185.723V103.468C185.723 103.025 185.611 102.692 185.387 102.468C185.169 102.238 184.859 102.124 184.459 102.124C184.161 102.124 183.899 102.185 183.675 102.308C183.457 102.425 183.286 102.598 183.163 102.828C183.046 103.052 182.987 103.324 182.987 103.644V105.852H182.419V101.652H182.963V102.804L182.875 102.588C183.009 102.284 183.222 102.046 183.515 101.876C183.809 101.7 184.158 101.612 184.563 101.612Z" fill="#818181"/>
<rect x="171.233" width="16.3582" height="73.2396" rx="4" fill="#FAFAFA"/>
</svg>
