<svg width="193" height="114" viewBox="0 0 193 114" fill="none" xmlns="http://www.w3.org/2000/svg">
<rect y="0.816406" width="16.8002" height="75.2187" rx="4" fill="#E02726"/>
<rect x="50.2422" y="0.816406" width="16.8002" height="75.2187" rx="4" fill="#E2E2E2"/>
<rect x="75.3672" y="0.816406" width="16.8002" height="75.2187" rx="4" fill="#E2E2E2"/>
<rect x="100.488" y="0.816406" width="16.8002" height="75.2187" rx="4" fill="#FAFAFA"/>
<rect x="125.613" y="0.816406" width="16.8002" height="75.2187" rx="4" fill="#FAFAFA"/>
<rect x="150.734" y="0.816406" width="16.8002" height="75.2187" rx="4" fill="#FAFAFA"/>
<rect x="25.1211" y="0.816406" width="16.8002" height="75.2187" rx="4" fill="#E2E2E2"/>
<path d="M0.912 99.1719V93.5719H1.504V98.6599H4.64V99.1719H0.912ZM7.45244 99.2119C7.0471 99.2119 6.68177 99.1212 6.35644 98.9399C6.03644 98.7532 5.7831 98.4999 5.59644 98.1799C5.40977 97.8545 5.31644 97.4839 5.31644 97.0679C5.31644 96.6465 5.40977 96.2759 5.59644 95.9559C5.7831 95.6359 6.03644 95.3852 6.35644 95.2039C6.67644 95.0225 7.04177 94.9319 7.45244 94.9319C7.86844 94.9319 8.23644 95.0225 8.55644 95.2039C8.88177 95.3852 9.1351 95.6359 9.31644 95.9559C9.5031 96.2759 9.59644 96.6465 9.59644 97.0679C9.59644 97.4839 9.5031 97.8545 9.31644 98.1799C9.1351 98.4999 8.88177 98.7532 8.55644 98.9399C8.2311 99.1212 7.8631 99.2119 7.45244 99.2119ZM7.45244 98.7079C7.75644 98.7079 8.02577 98.6412 8.26044 98.5079C8.4951 98.3692 8.6791 98.1772 8.81244 97.9319C8.9511 97.6812 9.02044 97.3932 9.02044 97.0679C9.02044 96.7372 8.9511 96.4492 8.81244 96.2039C8.6791 95.9585 8.4951 95.7692 8.26044 95.6359C8.02577 95.4972 7.7591 95.4279 7.46044 95.4279C7.16177 95.4279 6.8951 95.4972 6.66044 95.6359C6.42577 95.7692 6.2391 95.9585 6.10044 96.2039C5.96177 96.4492 5.89244 96.7372 5.89244 97.0679C5.89244 97.3932 5.96177 97.6812 6.10044 97.9319C6.2391 98.1772 6.42577 98.3692 6.66044 98.5079C6.8951 98.6412 7.1591 98.7079 7.45244 98.7079ZM11.7949 99.1719L10.2109 94.9719H10.7549L12.1949 98.8679H11.9469L13.4269 94.9719H13.9149L15.3789 98.8679H15.1309L16.5949 94.9719H17.1149L15.5229 99.1719H14.9869L13.5789 95.5079H13.7469L12.3309 99.1719H11.7949ZM1.44 106.076H4.4V106.58H1.44V106.076ZM1.504 108.66H4.872V109.172H0.912V103.572H4.752V104.084H1.504V108.66ZM8.58756 104.932C8.9289 104.932 9.22756 104.999 9.48356 105.132C9.7449 105.26 9.94756 105.457 10.0916 105.724C10.2409 105.991 10.3156 106.327 10.3156 106.732V109.172H9.74756V106.788C9.74756 106.345 9.63556 106.012 9.41156 105.788C9.1929 105.559 8.88356 105.444 8.48356 105.444C8.1849 105.444 7.92356 105.505 7.69956 105.628C7.4809 105.745 7.31023 105.919 7.18756 106.148C7.07023 106.372 7.01156 106.644 7.01156 106.964V109.172H6.44356V104.972H6.98756V106.124L6.89956 105.908C7.0329 105.604 7.24623 105.367 7.53956 105.196C7.8329 105.02 8.18223 104.932 8.58756 104.932ZM13.4778 109.212C13.0831 109.212 12.7791 109.105 12.5658 108.892C12.3525 108.679 12.2458 108.377 12.2458 107.988V104.044H12.8138V107.956C12.8138 108.201 12.8751 108.391 12.9978 108.524C13.1258 108.657 13.3071 108.724 13.5418 108.724C13.7925 108.724 14.0005 108.652 14.1658 108.508L14.3658 108.916C14.2538 109.017 14.1178 109.092 13.9578 109.14C13.8031 109.188 13.6431 109.212 13.4778 109.212ZM11.4938 105.444V104.972H14.0938V105.444H11.4938ZM17.8438 104.932C18.1851 104.932 18.4838 104.999 18.7398 105.132C19.0011 105.26 19.2038 105.457 19.3478 105.724C19.4971 105.991 19.5718 106.327 19.5718 106.732V109.172H19.0038V106.788C19.0038 106.345 18.8918 106.012 18.6678 105.788C18.4491 105.559 18.1398 105.444 17.7398 105.444C17.4411 105.444 17.1798 105.505 16.9558 105.628C16.7371 105.745 16.5665 105.919 16.4438 106.148C16.3265 106.372 16.2678 106.644 16.2678 106.964V109.172H15.6998V103.236H16.2678V106.124L16.1558 105.908C16.2891 105.604 16.5025 105.367 16.7958 105.196C17.0891 105.02 17.4385 104.932 17.8438 104.932ZM23.1421 109.212C22.7847 109.212 22.4727 109.145 22.2061 109.012C21.9394 108.879 21.7314 108.679 21.5821 108.412C21.4381 108.145 21.3661 107.812 21.3661 107.412V104.972H21.9341V107.348C21.9341 107.796 22.0434 108.135 22.2621 108.364C22.4861 108.588 22.7981 108.7 23.1981 108.7C23.4914 108.7 23.7447 108.641 23.9581 108.524C24.1767 108.401 24.3421 108.225 24.4541 107.996C24.5714 107.767 24.6301 107.492 24.6301 107.172V104.972H25.1981V109.172H24.6541V108.02L24.7421 108.228C24.6087 108.537 24.4007 108.78 24.1181 108.956C23.8407 109.127 23.5154 109.212 23.1421 109.212ZM28.2091 109.212C27.8624 109.212 27.5344 109.164 27.2251 109.068C26.9157 108.967 26.6731 108.841 26.4971 108.692L26.7531 108.244C26.9237 108.372 27.1424 108.484 27.4091 108.58C27.6757 108.671 27.9557 108.716 28.2491 108.716C28.6491 108.716 28.9371 108.655 29.1131 108.532C29.2891 108.404 29.3771 108.236 29.3771 108.028C29.3771 107.873 29.3264 107.753 29.2251 107.668C29.1291 107.577 29.0011 107.511 28.8411 107.468C28.6811 107.42 28.5024 107.38 28.3051 107.348C28.1077 107.316 27.9104 107.279 27.7131 107.236C27.5211 107.193 27.3451 107.132 27.1851 107.052C27.0251 106.967 26.8944 106.852 26.7931 106.708C26.6971 106.564 26.6491 106.372 26.6491 106.132C26.6491 105.903 26.7131 105.697 26.8411 105.516C26.9691 105.335 27.1557 105.193 27.4011 105.092C27.6517 104.985 27.9557 104.932 28.3131 104.932C28.5851 104.932 28.8571 104.969 29.1291 105.044C29.4011 105.113 29.6251 105.207 29.8011 105.324L29.5531 105.78C29.3664 105.652 29.1664 105.561 28.9531 105.508C28.7397 105.449 28.5264 105.42 28.3131 105.42C27.9344 105.42 27.6544 105.487 27.4731 105.62C27.2971 105.748 27.2091 105.913 27.2091 106.116C27.2091 106.276 27.2571 106.401 27.3531 106.492C27.4544 106.583 27.5851 106.655 27.7451 106.708C27.9104 106.756 28.0891 106.796 28.2811 106.828C28.4784 106.86 28.6731 106.9 28.8651 106.948C29.0624 106.991 29.2411 107.052 29.4011 107.132C29.5664 107.207 29.6971 107.316 29.7931 107.46C29.8944 107.599 29.9451 107.783 29.9451 108.012C29.9451 108.257 29.8757 108.471 29.7371 108.652C29.6037 108.828 29.4064 108.967 29.1451 109.068C28.8891 109.164 28.5771 109.212 28.2091 109.212ZM31.2873 109.172V104.972H31.8553V109.172H31.2873ZM31.5753 104.044C31.458 104.044 31.3593 104.004 31.2793 103.924C31.1993 103.844 31.1593 103.748 31.1593 103.636C31.1593 103.524 31.1993 103.431 31.2793 103.356C31.3593 103.276 31.458 103.236 31.5753 103.236C31.6926 103.236 31.7913 103.273 31.8713 103.348C31.9513 103.423 31.9913 103.516 31.9913 103.628C31.9913 103.745 31.9513 103.844 31.8713 103.924C31.7966 104.004 31.698 104.044 31.5753 104.044ZM36.3677 109.172V108.244L36.3437 108.092V106.54C36.3437 106.183 36.2424 105.908 36.0397 105.716C35.8424 105.524 35.5464 105.428 35.1517 105.428C34.8797 105.428 34.6211 105.473 34.3757 105.564C34.1304 105.655 33.9224 105.775 33.7517 105.924L33.4957 105.5C33.7091 105.319 33.9651 105.18 34.2637 105.084C34.5624 104.983 34.8771 104.932 35.2077 104.932C35.7517 104.932 36.1704 105.068 36.4637 105.34C36.7624 105.607 36.9117 106.015 36.9117 106.564V109.172H36.3677ZM34.9197 109.212C34.6051 109.212 34.3304 109.161 34.0957 109.06C33.8664 108.953 33.6904 108.809 33.5677 108.628C33.4451 108.441 33.3837 108.228 33.3837 107.988C33.3837 107.769 33.4344 107.572 33.5357 107.396C33.6424 107.215 33.8131 107.071 34.0477 106.964C34.2877 106.852 34.6077 106.796 35.0077 106.796H36.4557V107.22H35.0237C34.6184 107.22 34.3357 107.292 34.1757 107.436C34.0211 107.58 33.9437 107.759 33.9437 107.972C33.9437 108.212 34.0371 108.404 34.2237 108.548C34.4104 108.692 34.6717 108.764 35.0077 108.764C35.3277 108.764 35.6024 108.692 35.8317 108.548C36.0664 108.399 36.2371 108.185 36.3437 107.908L36.4717 108.3C36.3651 108.577 36.1784 108.799 35.9117 108.964C35.6504 109.129 35.3197 109.212 34.9197 109.212ZM39.8825 109.212C39.5358 109.212 39.2078 109.164 38.8985 109.068C38.5892 108.967 38.3465 108.841 38.1705 108.692L38.4265 108.244C38.5972 108.372 38.8158 108.484 39.0825 108.58C39.3492 108.671 39.6292 108.716 39.9225 108.716C40.3225 108.716 40.6105 108.655 40.7865 108.532C40.9625 108.404 41.0505 108.236 41.0505 108.028C41.0505 107.873 40.9998 107.753 40.8985 107.668C40.8025 107.577 40.6745 107.511 40.5145 107.468C40.3545 107.42 40.1758 107.38 39.9785 107.348C39.7812 107.316 39.5838 107.279 39.3865 107.236C39.1945 107.193 39.0185 107.132 38.8585 107.052C38.6985 106.967 38.5678 106.852 38.4665 106.708C38.3705 106.564 38.3225 106.372 38.3225 106.132C38.3225 105.903 38.3865 105.697 38.5145 105.516C38.6425 105.335 38.8292 105.193 39.0745 105.092C39.3252 104.985 39.6292 104.932 39.9865 104.932C40.2585 104.932 40.5305 104.969 40.8025 105.044C41.0745 105.113 41.2985 105.207 41.4745 105.324L41.2265 105.78C41.0398 105.652 40.8398 105.561 40.6265 105.508C40.4132 105.449 40.1998 105.42 39.9865 105.42C39.6078 105.42 39.3278 105.487 39.1465 105.62C38.9705 105.748 38.8825 105.913 38.8825 106.116C38.8825 106.276 38.9305 106.401 39.0265 106.492C39.1278 106.583 39.2585 106.655 39.4185 106.708C39.5838 106.756 39.7625 106.796 39.9545 106.828C40.1518 106.86 40.3465 106.9 40.5385 106.948C40.7358 106.991 40.9145 107.052 41.0745 107.132C41.2398 107.207 41.3705 107.316 41.4665 107.46C41.5678 107.599 41.6185 107.783 41.6185 108.012C41.6185 108.257 41.5492 108.471 41.4105 108.652C41.2772 108.828 41.0798 108.967 40.8185 109.068C40.5625 109.164 40.2505 109.212 39.8825 109.212ZM48.2088 104.932C48.5501 104.932 48.8461 104.999 49.0968 105.132C49.3528 105.26 49.5501 105.457 49.6888 105.724C49.8328 105.991 49.9048 106.327 49.9048 106.732V109.172H49.3368V106.788C49.3368 106.345 49.2301 106.012 49.0168 105.788C48.8088 105.559 48.5128 105.444 48.1288 105.444C47.8408 105.444 47.5901 105.505 47.3768 105.628C47.1688 105.745 47.0061 105.919 46.8888 106.148C46.7768 106.372 46.7208 106.644 46.7208 106.964V109.172H46.1528V106.788C46.1528 106.345 46.0461 106.012 45.8328 105.788C45.6194 105.559 45.3208 105.444 44.9368 105.444C44.6541 105.444 44.4061 105.505 44.1928 105.628C43.9794 105.745 43.8141 105.919 43.6968 106.148C43.5848 106.372 43.5288 106.644 43.5288 106.964V109.172H42.9608V104.972H43.5048V106.108L43.4168 105.908C43.5448 105.604 43.7501 105.367 44.0328 105.196C44.3208 105.02 44.6594 104.932 45.0488 104.932C45.4594 104.932 45.8088 105.036 46.0968 105.244C46.3848 105.447 46.5714 105.753 46.6568 106.164L46.4328 106.076C46.5554 105.735 46.7714 105.46 47.0808 105.252C47.3954 105.039 47.7714 104.932 48.2088 104.932Z" fill="#818181"/>
<path d="M176.659 93.5719H177.243V99.1719H176.659V93.5719ZM173.155 99.1719H172.563V93.5719H173.155V99.1719ZM176.715 96.5879H173.091V96.0679H176.715V96.5879ZM179.251 99.1719V94.9719H179.819V99.1719H179.251ZM179.539 94.0439C179.422 94.0439 179.323 94.0039 179.243 93.9239C179.163 93.8439 179.123 93.7479 179.123 93.6359C179.123 93.5239 179.163 93.4305 179.243 93.3559C179.323 93.2759 179.422 93.2359 179.539 93.2359C179.657 93.2359 179.755 93.2732 179.835 93.3479C179.915 93.4225 179.955 93.5159 179.955 93.6279C179.955 93.7452 179.915 93.8439 179.835 93.9239C179.761 94.0039 179.662 94.0439 179.539 94.0439ZM183.492 100.764C183.108 100.764 182.74 100.708 182.388 100.596C182.036 100.484 181.75 100.324 181.532 100.116L181.82 99.6839C182.017 99.8599 182.26 99.9985 182.548 100.1C182.841 100.207 183.15 100.26 183.476 100.26C184.009 100.26 184.401 100.135 184.652 99.8839C184.902 99.6385 185.028 99.2545 185.028 98.7319V97.6839L185.108 96.9639L185.052 96.2439V94.9719H185.596V98.6599C185.596 99.3852 185.417 99.9159 185.06 100.252C184.708 100.593 184.185 100.764 183.492 100.764ZM183.388 99.0119C182.988 99.0119 182.628 98.9265 182.308 98.7559C181.988 98.5799 181.734 98.3372 181.548 98.0279C181.366 97.7185 181.276 97.3639 181.276 96.9639C181.276 96.5639 181.366 96.2119 181.548 95.9079C181.734 95.5985 181.988 95.3585 182.308 95.1879C182.628 95.0172 182.988 94.9319 183.388 94.9319C183.761 94.9319 184.097 95.0092 184.396 95.1639C184.694 95.3185 184.932 95.5479 185.108 95.8519C185.284 96.1559 185.372 96.5265 185.372 96.9639C185.372 97.4012 185.284 97.7719 185.108 98.0759C184.932 98.3799 184.694 98.6119 184.396 98.7719C184.097 98.9319 183.761 99.0119 183.388 99.0119ZM183.444 98.5079C183.753 98.5079 184.028 98.4439 184.268 98.3159C184.508 98.1825 184.697 98.0012 184.836 97.7719C184.974 97.5372 185.044 97.2679 185.044 96.9639C185.044 96.6599 184.974 96.3932 184.836 96.1639C184.697 95.9345 184.508 95.7559 184.268 95.6279C184.028 95.4945 183.753 95.4279 183.444 95.4279C183.14 95.4279 182.865 95.4945 182.62 95.6279C182.38 95.7559 182.19 95.9345 182.052 96.1639C181.918 96.3932 181.852 96.6599 181.852 96.9639C181.852 97.2679 181.918 97.5372 182.052 97.7719C182.19 98.0012 182.38 98.1825 182.62 98.3159C182.865 98.4439 183.14 98.5079 183.444 98.5079ZM189.62 94.9319C189.962 94.9319 190.26 94.9985 190.516 95.1319C190.778 95.2599 190.98 95.4572 191.124 95.7239C191.274 95.9905 191.348 96.3265 191.348 96.7319V99.1719H190.78V96.7879C190.78 96.3452 190.668 96.0119 190.444 95.7879C190.226 95.5585 189.916 95.4439 189.516 95.4439C189.218 95.4439 188.956 95.5052 188.732 95.6279C188.514 95.7452 188.343 95.9185 188.22 96.1479C188.103 96.3719 188.044 96.6439 188.044 96.9639V99.1719H187.476V93.2359H188.044V96.1239L187.932 95.9079C188.066 95.6039 188.279 95.3665 188.572 95.1959C188.866 95.0199 189.215 94.9319 189.62 94.9319ZM142.877 106.076H145.837V106.58H142.877V106.076ZM142.941 108.66H146.309V109.172H142.349V103.572H146.189V104.084H142.941V108.66ZM150.025 104.932C150.366 104.932 150.665 104.999 150.921 105.132C151.182 105.26 151.385 105.457 151.529 105.724C151.678 105.991 151.753 106.327 151.753 106.732V109.172H151.185V106.788C151.185 106.345 151.073 106.012 150.849 105.788C150.63 105.559 150.321 105.444 149.921 105.444C149.622 105.444 149.361 105.505 149.137 105.628C148.918 105.745 148.748 105.919 148.625 106.148C148.508 106.372 148.449 106.644 148.449 106.964V109.172H147.881V104.972H148.425V106.124L148.337 105.908C148.47 105.604 148.684 105.367 148.977 105.196C149.27 105.02 149.62 104.932 150.025 104.932ZM154.915 109.212C154.521 109.212 154.217 109.105 154.003 108.892C153.79 108.679 153.683 108.377 153.683 107.988V104.044H154.251V107.956C154.251 108.201 154.313 108.391 154.435 108.524C154.563 108.657 154.745 108.724 154.979 108.724C155.23 108.724 155.438 108.652 155.603 108.508L155.803 108.916C155.691 109.017 155.555 109.092 155.395 109.14C155.241 109.188 155.081 109.212 154.915 109.212ZM152.931 105.444V104.972H155.531V105.444H152.931ZM159.281 104.932C159.623 104.932 159.921 104.999 160.177 105.132C160.439 105.26 160.641 105.457 160.785 105.724C160.935 105.991 161.009 106.327 161.009 106.732V109.172H160.441V106.788C160.441 106.345 160.329 106.012 160.105 105.788C159.887 105.559 159.577 105.444 159.177 105.444C158.879 105.444 158.617 105.505 158.393 105.628C158.175 105.745 158.004 105.919 157.881 106.148C157.764 106.372 157.705 106.644 157.705 106.964V109.172H157.137V103.236H157.705V106.124L157.593 105.908C157.727 105.604 157.94 105.367 158.233 105.196C158.527 105.02 158.876 104.932 159.281 104.932ZM164.579 109.212C164.222 109.212 163.91 109.145 163.643 109.012C163.377 108.879 163.169 108.679 163.019 108.412C162.875 108.145 162.803 107.812 162.803 107.412V104.972H163.371V107.348C163.371 107.796 163.481 108.135 163.699 108.364C163.923 108.588 164.235 108.7 164.635 108.7C164.929 108.7 165.182 108.641 165.395 108.524C165.614 108.401 165.779 108.225 165.891 107.996C166.009 107.767 166.067 107.492 166.067 107.172V104.972H166.635V109.172H166.091V108.02L166.179 108.228C166.046 108.537 165.838 108.78 165.555 108.956C165.278 109.127 164.953 109.212 164.579 109.212ZM169.646 109.212C169.3 109.212 168.972 109.164 168.662 109.068C168.353 108.967 168.11 108.841 167.934 108.692L168.19 108.244C168.361 108.372 168.58 108.484 168.846 108.58C169.113 108.671 169.393 108.716 169.686 108.716C170.086 108.716 170.374 108.655 170.55 108.532C170.726 108.404 170.814 108.236 170.814 108.028C170.814 107.873 170.764 107.753 170.662 107.668C170.566 107.577 170.438 107.511 170.278 107.468C170.118 107.42 169.94 107.38 169.742 107.348C169.545 107.316 169.348 107.279 169.15 107.236C168.958 107.193 168.782 107.132 168.622 107.052C168.462 106.967 168.332 106.852 168.23 106.708C168.134 106.564 168.086 106.372 168.086 106.132C168.086 105.903 168.15 105.697 168.278 105.516C168.406 105.335 168.593 105.193 168.838 105.092C169.089 104.985 169.393 104.932 169.75 104.932C170.022 104.932 170.294 104.969 170.566 105.044C170.838 105.113 171.062 105.207 171.238 105.324L170.99 105.78C170.804 105.652 170.604 105.561 170.39 105.508C170.177 105.449 169.964 105.42 169.75 105.42C169.372 105.42 169.092 105.487 168.91 105.62C168.734 105.748 168.646 105.913 168.646 106.116C168.646 106.276 168.694 106.401 168.79 106.492C168.892 106.583 169.022 106.655 169.182 106.708C169.348 106.756 169.526 106.796 169.718 106.828C169.916 106.86 170.11 106.9 170.302 106.948C170.5 106.991 170.678 107.052 170.838 107.132C171.004 107.207 171.134 107.316 171.23 107.46C171.332 107.599 171.382 107.783 171.382 108.012C171.382 108.257 171.313 108.471 171.174 108.652C171.041 108.828 170.844 108.967 170.582 109.068C170.326 109.164 170.014 109.212 169.646 109.212ZM172.725 109.172V104.972H173.293V109.172H172.725ZM173.013 104.044C172.895 104.044 172.797 104.004 172.717 103.924C172.637 103.844 172.597 103.748 172.597 103.636C172.597 103.524 172.637 103.431 172.717 103.356C172.797 103.276 172.895 103.236 173.013 103.236C173.13 103.236 173.229 103.273 173.309 103.348C173.389 103.423 173.429 103.516 173.429 103.628C173.429 103.745 173.389 103.844 173.309 103.924C173.234 104.004 173.135 104.044 173.013 104.044ZM177.805 109.172V108.244L177.781 108.092V106.54C177.781 106.183 177.68 105.908 177.477 105.716C177.28 105.524 176.984 105.428 176.589 105.428C176.317 105.428 176.058 105.473 175.813 105.564C175.568 105.655 175.36 105.775 175.189 105.924L174.933 105.5C175.146 105.319 175.402 105.18 175.701 105.084C176 104.983 176.314 104.932 176.645 104.932C177.189 104.932 177.608 105.068 177.901 105.34C178.2 105.607 178.349 106.015 178.349 106.564V109.172H177.805ZM176.357 109.212C176.042 109.212 175.768 109.161 175.533 109.06C175.304 108.953 175.128 108.809 175.005 108.628C174.882 108.441 174.821 108.228 174.821 107.988C174.821 107.769 174.872 107.572 174.973 107.396C175.08 107.215 175.25 107.071 175.485 106.964C175.725 106.852 176.045 106.796 176.445 106.796H177.893V107.22H176.461C176.056 107.22 175.773 107.292 175.613 107.436C175.458 107.58 175.381 107.759 175.381 107.972C175.381 108.212 175.474 108.404 175.661 108.548C175.848 108.692 176.109 108.764 176.445 108.764C176.765 108.764 177.04 108.692 177.269 108.548C177.504 108.399 177.674 108.185 177.781 107.908L177.909 108.3C177.802 108.577 177.616 108.799 177.349 108.964C177.088 109.129 176.757 109.212 176.357 109.212ZM181.32 109.212C180.973 109.212 180.645 109.164 180.336 109.068C180.027 108.967 179.784 108.841 179.608 108.692L179.864 108.244C180.035 108.372 180.253 108.484 180.52 108.58C180.787 108.671 181.067 108.716 181.36 108.716C181.76 108.716 182.048 108.655 182.224 108.532C182.4 108.404 182.488 108.236 182.488 108.028C182.488 107.873 182.437 107.753 182.336 107.668C182.24 107.577 182.112 107.511 181.952 107.468C181.792 107.42 181.613 107.38 181.416 107.348C181.219 107.316 181.021 107.279 180.824 107.236C180.632 107.193 180.456 107.132 180.296 107.052C180.136 106.967 180.005 106.852 179.904 106.708C179.808 106.564 179.76 106.372 179.76 106.132C179.76 105.903 179.824 105.697 179.952 105.516C180.08 105.335 180.267 105.193 180.512 105.092C180.763 104.985 181.067 104.932 181.424 104.932C181.696 104.932 181.968 104.969 182.24 105.044C182.512 105.113 182.736 105.207 182.912 105.324L182.664 105.78C182.477 105.652 182.277 105.561 182.064 105.508C181.851 105.449 181.637 105.42 181.424 105.42C181.045 105.42 180.765 105.487 180.584 105.62C180.408 105.748 180.32 105.913 180.32 106.116C180.32 106.276 180.368 106.401 180.464 106.492C180.565 106.583 180.696 106.655 180.856 106.708C181.021 106.756 181.2 106.796 181.392 106.828C181.589 106.86 181.784 106.9 181.976 106.948C182.173 106.991 182.352 107.052 182.512 107.132C182.677 107.207 182.808 107.316 182.904 107.46C183.005 107.599 183.056 107.783 183.056 108.012C183.056 108.257 182.987 108.471 182.848 108.652C182.715 108.828 182.517 108.967 182.256 109.068C182 109.164 181.688 109.212 181.32 109.212ZM189.646 104.932C189.987 104.932 190.283 104.999 190.534 105.132C190.79 105.26 190.987 105.457 191.126 105.724C191.27 105.991 191.342 106.327 191.342 106.732V109.172H190.774V106.788C190.774 106.345 190.667 106.012 190.454 105.788C190.246 105.559 189.95 105.444 189.566 105.444C189.278 105.444 189.027 105.505 188.814 105.628C188.606 105.745 188.443 105.919 188.326 106.148C188.214 106.372 188.158 106.644 188.158 106.964V109.172H187.59V106.788C187.59 106.345 187.483 106.012 187.27 105.788C187.057 105.559 186.758 105.444 186.374 105.444C186.091 105.444 185.843 105.505 185.63 105.628C185.417 105.745 185.251 105.919 185.134 106.148C185.022 106.372 184.966 106.644 184.966 106.964V109.172H184.398V104.972H184.942V106.108L184.854 105.908C184.982 105.604 185.187 105.367 185.47 105.196C185.758 105.02 186.097 104.932 186.486 104.932C186.897 104.932 187.246 105.036 187.534 105.244C187.822 105.447 188.009 105.753 188.094 106.164L187.87 106.076C187.993 105.735 188.209 105.46 188.518 105.252C188.833 105.039 189.209 104.932 189.646 104.932Z" fill="#818181"/>
<rect x="175.859" width="16.8002" height="75.2187" rx="4" fill="#FAFAFA"/>
</svg>
