<svg width="190" height="112" viewBox="0 0 190 112" fill="none" xmlns="http://www.w3.org/2000/svg">
<rect y="0.804688" width="16.5056" height="73.8994" rx="4" fill="#FAFAFA"/>
<rect x="49.3623" y="0.804688" width="16.5056" height="73.8994" rx="4" fill="#FAFAFA"/>
<rect x="74.0459" y="0.804688" width="16.5056" height="73.8994" rx="4" fill="#FAFAFA"/>
<rect x="98.7256" y="0.804688" width="16.5056" height="73.8994" rx="4" fill="#E2E2E2"/>
<rect x="123.409" y="0.804688" width="16.5056" height="73.8994" rx="4" fill="#E2E2E2"/>
<rect x="148.093" y="0.804688" width="16.5056" height="73.8994" rx="4" fill="#E2E2E2"/>
<rect x="24.6836" y="0.804688" width="16.5056" height="73.8994" rx="4" fill="#FAFAFA"/>
<path d="M0.912 97.625V92.025H1.504V97.113H4.64V97.625H0.912ZM7.45244 97.665C7.0471 97.665 6.68177 97.5743 6.35644 97.393C6.03644 97.2063 5.7831 96.953 5.59644 96.633C5.40977 96.3077 5.31644 95.937 5.31644 95.521C5.31644 95.0997 5.40977 94.729 5.59644 94.409C5.7831 94.089 6.03644 93.8383 6.35644 93.657C6.67644 93.4757 7.04177 93.385 7.45244 93.385C7.86844 93.385 8.23644 93.4757 8.55644 93.657C8.88177 93.8383 9.1351 94.089 9.31644 94.409C9.5031 94.729 9.59644 95.0997 9.59644 95.521C9.59644 95.937 9.5031 96.3077 9.31644 96.633C9.1351 96.953 8.88177 97.2063 8.55644 97.393C8.2311 97.5743 7.8631 97.665 7.45244 97.665ZM7.45244 97.161C7.75644 97.161 8.02577 97.0943 8.26044 96.961C8.4951 96.8223 8.6791 96.6303 8.81244 96.385C8.9511 96.1343 9.02044 95.8463 9.02044 95.521C9.02044 95.1903 8.9511 94.9023 8.81244 94.657C8.6791 94.4117 8.4951 94.2223 8.26044 94.089C8.02577 93.9503 7.7591 93.881 7.46044 93.881C7.16177 93.881 6.8951 93.9503 6.66044 94.089C6.42577 94.2223 6.2391 94.4117 6.10044 94.657C5.96177 94.9023 5.89244 95.1903 5.89244 95.521C5.89244 95.8463 5.96177 96.1343 6.10044 96.385C6.2391 96.6303 6.42577 96.8223 6.66044 96.961C6.8951 97.0943 7.1591 97.161 7.45244 97.161ZM11.7949 97.625L10.2109 93.425H10.7549L12.1949 97.321H11.9469L13.4269 93.425H13.9149L15.3789 97.321H15.1309L16.5949 93.425H17.1149L15.5229 97.625H14.9869L13.5789 93.961H13.7469L12.3309 97.625H11.7949ZM0.912 107.625V102.025H1.4L5.264 106.889H5.008V102.025H5.592V107.625H5.104L1.248 102.761H1.504V107.625H0.912ZM9.38381 107.665C8.94648 107.665 8.56248 107.574 8.23181 107.393C7.90115 107.206 7.64248 106.953 7.45581 106.633C7.26915 106.308 7.17581 105.937 7.17581 105.521C7.17581 105.105 7.26381 104.737 7.43981 104.417C7.62115 104.097 7.86648 103.846 8.17581 103.665C8.49048 103.478 8.84248 103.385 9.23181 103.385C9.62648 103.385 9.97581 103.476 10.2798 103.657C10.5891 103.833 10.8318 104.084 11.0078 104.409C11.1838 104.729 11.2718 105.1 11.2718 105.521C11.2718 105.548 11.2691 105.577 11.2638 105.609C11.2638 105.636 11.2638 105.665 11.2638 105.697H7.60781V105.273H10.9598L10.7358 105.441C10.7358 105.137 10.6691 104.868 10.5358 104.633C10.4078 104.393 10.2318 104.206 10.0078 104.073C9.78381 103.94 9.52515 103.873 9.23181 103.873C8.94381 103.873 8.68515 103.94 8.45581 104.073C8.22648 104.206 8.04781 104.393 7.91981 104.633C7.79181 104.873 7.72781 105.148 7.72781 105.457V105.545C7.72781 105.865 7.79715 106.148 7.93581 106.393C8.07981 106.633 8.27715 106.822 8.52781 106.961C8.78381 107.094 9.07448 107.161 9.39981 107.161C9.65581 107.161 9.89315 107.116 10.1118 107.025C10.3358 106.934 10.5278 106.796 10.6878 106.609L11.0078 106.977C10.8211 107.201 10.5865 107.372 10.3038 107.489C10.0265 107.606 9.71981 107.665 9.38381 107.665ZM14.5199 109.217C14.1359 109.217 13.7679 109.161 13.4159 109.049C13.0639 108.937 12.7786 108.777 12.5599 108.569L12.8479 108.137C13.0453 108.313 13.2879 108.452 13.5759 108.553C13.8693 108.66 14.1786 108.713 14.5039 108.713C15.0373 108.713 15.4293 108.588 15.6799 108.337C15.9306 108.092 16.0559 107.708 16.0559 107.185V106.137L16.1359 105.417L16.0799 104.697V103.425H16.6239V107.113C16.6239 107.838 16.4453 108.369 16.0879 108.705C15.7359 109.046 15.2133 109.217 14.5199 109.217ZM14.4159 107.465C14.0159 107.465 13.6559 107.38 13.3359 107.209C13.0159 107.033 12.7626 106.79 12.5759 106.481C12.3946 106.172 12.3039 105.817 12.3039 105.417C12.3039 105.017 12.3946 104.665 12.5759 104.361C12.7626 104.052 13.0159 103.812 13.3359 103.641C13.6559 103.47 14.0159 103.385 14.4159 103.385C14.7893 103.385 15.1253 103.462 15.4239 103.617C15.7226 103.772 15.9599 104.001 16.1359 104.305C16.3119 104.609 16.3999 104.98 16.3999 105.417C16.3999 105.854 16.3119 106.225 16.1359 106.529C15.9599 106.833 15.7226 107.065 15.4239 107.225C15.1253 107.385 14.7893 107.465 14.4159 107.465ZM14.4719 106.961C14.7813 106.961 15.0559 106.897 15.2959 106.769C15.5359 106.636 15.7253 106.454 15.8639 106.225C16.0026 105.99 16.0719 105.721 16.0719 105.417C16.0719 105.113 16.0026 104.846 15.8639 104.617C15.7253 104.388 15.5359 104.209 15.2959 104.081C15.0559 103.948 14.7813 103.881 14.4719 103.881C14.1679 103.881 13.8933 103.948 13.6479 104.081C13.4079 104.209 13.2186 104.388 13.0799 104.617C12.9466 104.846 12.8799 105.113 12.8799 105.417C12.8799 105.721 12.9466 105.99 13.0799 106.225C13.2186 106.454 13.4079 106.636 13.6479 106.769C13.8933 106.897 14.1679 106.961 14.4719 106.961ZM21.1365 107.625V106.697L21.1125 106.545V104.993C21.1125 104.636 21.0112 104.361 20.8085 104.169C20.6112 103.977 20.3152 103.881 19.9205 103.881C19.6485 103.881 19.3898 103.926 19.1445 104.017C18.8992 104.108 18.6912 104.228 18.5205 104.377L18.2645 103.953C18.4778 103.772 18.7338 103.633 19.0325 103.537C19.3312 103.436 19.6458 103.385 19.9765 103.385C20.5205 103.385 20.9392 103.521 21.2325 103.793C21.5312 104.06 21.6805 104.468 21.6805 105.017V107.625H21.1365ZM19.6885 107.665C19.3738 107.665 19.0992 107.614 18.8645 107.513C18.6352 107.406 18.4592 107.262 18.3365 107.081C18.2138 106.894 18.1525 106.681 18.1525 106.441C18.1525 106.222 18.2032 106.025 18.3045 105.849C18.4112 105.668 18.5818 105.524 18.8165 105.417C19.0565 105.305 19.3765 105.249 19.7765 105.249H21.2245V105.673H19.7925C19.3872 105.673 19.1045 105.745 18.9445 105.889C18.7898 106.033 18.7125 106.212 18.7125 106.425C18.7125 106.665 18.8058 106.857 18.9925 107.001C19.1792 107.145 19.4405 107.217 19.7765 107.217C20.0965 107.217 20.3712 107.145 20.6005 107.001C20.8352 106.852 21.0058 106.638 21.1125 106.361L21.2405 106.753C21.1338 107.03 20.9472 107.252 20.6805 107.417C20.4192 107.582 20.0885 107.665 19.6885 107.665ZM24.8513 107.665C24.4566 107.665 24.1526 107.558 23.9393 107.345C23.7259 107.132 23.6193 106.83 23.6193 106.441V102.497H24.1873V106.409C24.1873 106.654 24.2486 106.844 24.3713 106.977C24.4993 107.11 24.6806 107.177 24.9153 107.177C25.1659 107.177 25.3739 107.105 25.5393 106.961L25.7393 107.369C25.6273 107.47 25.4913 107.545 25.3313 107.593C25.1766 107.641 25.0166 107.665 24.8513 107.665ZM22.8673 103.897V103.425H25.4673V103.897H22.8673ZM27.0733 107.625V103.425H27.6413V107.625H27.0733ZM27.3613 102.497C27.2439 102.497 27.1453 102.457 27.0653 102.377C26.9853 102.297 26.9453 102.201 26.9453 102.089C26.9453 101.977 26.9853 101.884 27.0653 101.809C27.1453 101.729 27.2439 101.689 27.3613 101.689C27.4786 101.689 27.5773 101.726 27.6573 101.801C27.7373 101.876 27.7773 101.969 27.7773 102.081C27.7773 102.198 27.7373 102.297 27.6573 102.377C27.5826 102.457 27.4839 102.497 27.3613 102.497ZM30.6017 107.625L28.7377 103.425H29.3297L31.0417 107.321H30.7617L32.4977 103.425H33.0577L31.1857 107.625H30.6017ZM34.1576 107.625V103.425H34.7256V107.625H34.1576ZM34.4456 102.497C34.3283 102.497 34.2296 102.457 34.1496 102.377C34.0696 102.297 34.0296 102.201 34.0296 102.089C34.0296 101.977 34.0696 101.884 34.1496 101.809C34.2296 101.729 34.3283 101.689 34.4456 101.689C34.563 101.689 34.6616 101.726 34.7416 101.801C34.8216 101.876 34.8616 101.969 34.8616 102.081C34.8616 102.198 34.8216 102.297 34.7416 102.377C34.667 102.457 34.5683 102.497 34.4456 102.497ZM37.9341 107.665C37.5394 107.665 37.2354 107.558 37.0221 107.345C36.8087 107.132 36.7021 106.83 36.7021 106.441V102.497H37.2701V106.409C37.2701 106.654 37.3314 106.844 37.4541 106.977C37.5821 107.11 37.7634 107.177 37.9981 107.177C38.2487 107.177 38.4567 107.105 38.6221 106.961L38.8221 107.369C38.7101 107.47 38.5741 107.545 38.4141 107.593C38.2594 107.641 38.0994 107.665 37.9341 107.665ZM35.9501 103.897V103.425H38.5501V103.897H35.9501ZM40.1099 109.217C39.9126 109.217 39.7233 109.185 39.5419 109.121C39.3659 109.057 39.2139 108.961 39.0859 108.833L39.3499 108.409C39.4566 108.51 39.5713 108.588 39.6939 108.641C39.8219 108.7 39.9633 108.729 40.1179 108.729C40.3046 108.729 40.4646 108.676 40.5979 108.569C40.7366 108.468 40.8673 108.286 40.9899 108.025L41.2619 107.409L41.3259 107.321L43.0539 103.425H43.6139L41.5099 108.129C41.3926 108.401 41.2619 108.617 41.1179 108.777C40.9793 108.937 40.8273 109.049 40.6619 109.113C40.4966 109.182 40.3126 109.217 40.1099 109.217ZM41.2299 107.745L39.2939 103.425H39.8859L41.5979 107.281L41.2299 107.745Z" fill="#818181"/>
<path d="M173.287 92.025H173.871V97.625H173.287V92.025ZM169.783 97.625H169.191V92.025H169.783V97.625ZM173.343 95.041H169.719V94.521H173.343V95.041ZM175.879 97.625V93.425H176.447V97.625H175.879ZM176.167 92.497C176.05 92.497 175.951 92.457 175.871 92.377C175.791 92.297 175.751 92.201 175.751 92.089C175.751 91.977 175.791 91.8837 175.871 91.809C175.951 91.729 176.05 91.689 176.167 91.689C176.284 91.689 176.383 91.7263 176.463 91.801C176.543 91.8757 176.583 91.969 176.583 92.081C176.583 92.1983 176.543 92.297 176.463 92.377C176.388 92.457 176.29 92.497 176.167 92.497ZM180.119 99.217C179.735 99.217 179.367 99.161 179.015 99.049C178.663 98.937 178.378 98.777 178.159 98.569L178.447 98.137C178.645 98.313 178.887 98.4517 179.175 98.553C179.469 98.6597 179.778 98.713 180.103 98.713C180.637 98.713 181.029 98.5877 181.279 98.337C181.53 98.0917 181.655 97.7077 181.655 97.185V96.137L181.735 95.417L181.679 94.697V93.425H182.223V97.113C182.223 97.8383 182.045 98.369 181.687 98.705C181.335 99.0463 180.813 99.217 180.119 99.217ZM180.015 97.465C179.615 97.465 179.255 97.3797 178.935 97.209C178.615 97.033 178.362 96.7903 178.175 96.481C177.994 96.1717 177.903 95.817 177.903 95.417C177.903 95.017 177.994 94.665 178.175 94.361C178.362 94.0517 178.615 93.8117 178.935 93.641C179.255 93.4703 179.615 93.385 180.015 93.385C180.389 93.385 180.725 93.4623 181.023 93.617C181.322 93.7717 181.559 94.001 181.735 94.305C181.911 94.609 181.999 94.9797 181.999 95.417C181.999 95.8543 181.911 96.225 181.735 96.529C181.559 96.833 181.322 97.065 181.023 97.225C180.725 97.385 180.389 97.465 180.015 97.465ZM180.071 96.961C180.381 96.961 180.655 96.897 180.895 96.769C181.135 96.6357 181.325 96.4543 181.463 96.225C181.602 95.9903 181.671 95.721 181.671 95.417C181.671 95.113 181.602 94.8463 181.463 94.617C181.325 94.3877 181.135 94.209 180.895 94.081C180.655 93.9477 180.381 93.881 180.071 93.881C179.767 93.881 179.493 93.9477 179.247 94.081C179.007 94.209 178.818 94.3877 178.679 94.617C178.546 94.8463 178.479 95.113 178.479 95.417C178.479 95.721 178.546 95.9903 178.679 96.225C178.818 96.4543 179.007 96.6357 179.247 96.769C179.493 96.897 179.767 96.961 180.071 96.961ZM186.248 93.385C186.589 93.385 186.888 93.4517 187.144 93.585C187.405 93.713 187.608 93.9103 187.752 94.177C187.901 94.4437 187.976 94.7797 187.976 95.185V97.625H187.408V95.241C187.408 94.7983 187.296 94.465 187.072 94.241C186.853 94.0117 186.544 93.897 186.144 93.897C185.845 93.897 185.584 93.9583 185.36 94.081C185.141 94.1983 184.971 94.3717 184.848 94.601C184.731 94.825 184.672 95.097 184.672 95.417V97.625H184.104V91.689H184.672V94.577L184.56 94.361C184.693 94.057 184.907 93.8197 185.2 93.649C185.493 93.473 185.843 93.385 186.248 93.385ZM146.008 107.625V102.025H146.496L150.36 106.889H150.104V102.025H150.688V107.625H150.2L146.344 102.761H146.6V107.625H146.008ZM154.48 107.665C154.043 107.665 153.659 107.574 153.328 107.393C152.997 107.206 152.739 106.953 152.552 106.633C152.365 106.308 152.272 105.937 152.272 105.521C152.272 105.105 152.36 104.737 152.536 104.417C152.717 104.097 152.963 103.846 153.272 103.665C153.587 103.478 153.939 103.385 154.328 103.385C154.723 103.385 155.072 103.476 155.376 103.657C155.685 103.833 155.928 104.084 156.104 104.409C156.28 104.729 156.368 105.1 156.368 105.521C156.368 105.548 156.365 105.577 156.36 105.609C156.36 105.636 156.36 105.665 156.36 105.697H152.704V105.273H156.056L155.832 105.441C155.832 105.137 155.765 104.868 155.632 104.633C155.504 104.393 155.328 104.206 155.104 104.073C154.88 103.94 154.621 103.873 154.328 103.873C154.04 103.873 153.781 103.94 153.552 104.073C153.323 104.206 153.144 104.393 153.016 104.633C152.888 104.873 152.824 105.148 152.824 105.457V105.545C152.824 105.865 152.893 106.148 153.032 106.393C153.176 106.633 153.373 106.822 153.624 106.961C153.88 107.094 154.171 107.161 154.496 107.161C154.752 107.161 154.989 107.116 155.208 107.025C155.432 106.934 155.624 106.796 155.784 106.609L156.104 106.977C155.917 107.201 155.683 107.372 155.4 107.489C155.123 107.606 154.816 107.665 154.48 107.665ZM159.616 109.217C159.232 109.217 158.864 109.161 158.512 109.049C158.16 108.937 157.875 108.777 157.656 108.569L157.944 108.137C158.142 108.313 158.384 108.452 158.672 108.553C158.966 108.66 159.275 108.713 159.6 108.713C160.134 108.713 160.526 108.588 160.776 108.337C161.027 108.092 161.152 107.708 161.152 107.185V106.137L161.232 105.417L161.176 104.697V103.425H161.72V107.113C161.72 107.838 161.542 108.369 161.184 108.705C160.832 109.046 160.31 109.217 159.616 109.217ZM159.512 107.465C159.112 107.465 158.752 107.38 158.432 107.209C158.112 107.033 157.859 106.79 157.672 106.481C157.491 106.172 157.4 105.817 157.4 105.417C157.4 105.017 157.491 104.665 157.672 104.361C157.859 104.052 158.112 103.812 158.432 103.641C158.752 103.47 159.112 103.385 159.512 103.385C159.886 103.385 160.222 103.462 160.52 103.617C160.819 103.772 161.056 104.001 161.232 104.305C161.408 104.609 161.496 104.98 161.496 105.417C161.496 105.854 161.408 106.225 161.232 106.529C161.056 106.833 160.819 107.065 160.52 107.225C160.222 107.385 159.886 107.465 159.512 107.465ZM159.568 106.961C159.878 106.961 160.152 106.897 160.392 106.769C160.632 106.636 160.822 106.454 160.96 106.225C161.099 105.99 161.168 105.721 161.168 105.417C161.168 105.113 161.099 104.846 160.96 104.617C160.822 104.388 160.632 104.209 160.392 104.081C160.152 103.948 159.878 103.881 159.568 103.881C159.264 103.881 158.99 103.948 158.744 104.081C158.504 104.209 158.315 104.388 158.176 104.617C158.043 104.846 157.976 105.113 157.976 105.417C157.976 105.721 158.043 105.99 158.176 106.225C158.315 106.454 158.504 106.636 158.744 106.769C158.99 106.897 159.264 106.961 159.568 106.961ZM166.233 107.625V106.697L166.209 106.545V104.993C166.209 104.636 166.107 104.361 165.905 104.169C165.707 103.977 165.411 103.881 165.017 103.881C164.745 103.881 164.486 103.926 164.241 104.017C163.995 104.108 163.787 104.228 163.617 104.377L163.361 103.953C163.574 103.772 163.83 103.633 164.129 103.537C164.427 103.436 164.742 103.385 165.073 103.385C165.617 103.385 166.035 103.521 166.329 103.793C166.627 104.06 166.777 104.468 166.777 105.017V107.625H166.233ZM164.785 107.665C164.47 107.665 164.195 107.614 163.961 107.513C163.731 107.406 163.555 107.262 163.433 107.081C163.31 106.894 163.249 106.681 163.249 106.441C163.249 106.222 163.299 106.025 163.401 105.849C163.507 105.668 163.678 105.524 163.913 105.417C164.153 105.305 164.473 105.249 164.873 105.249H166.321V105.673H164.889C164.483 105.673 164.201 105.745 164.041 105.889C163.886 106.033 163.809 106.212 163.809 106.425C163.809 106.665 163.902 106.857 164.089 107.001C164.275 107.145 164.537 107.217 164.873 107.217C165.193 107.217 165.467 107.145 165.697 107.001C165.931 106.852 166.102 106.638 166.209 106.361L166.337 106.753C166.23 107.03 166.043 107.252 165.777 107.417C165.515 107.582 165.185 107.665 164.785 107.665ZM169.947 107.665C169.553 107.665 169.249 107.558 169.035 107.345C168.822 107.132 168.715 106.83 168.715 106.441V102.497H169.283V106.409C169.283 106.654 169.345 106.844 169.467 106.977C169.595 107.11 169.777 107.177 170.011 107.177C170.262 107.177 170.47 107.105 170.635 106.961L170.835 107.369C170.723 107.47 170.587 107.545 170.427 107.593C170.273 107.641 170.113 107.665 169.947 107.665ZM167.963 103.897V103.425H170.563V103.897H167.963ZM172.169 107.625V103.425H172.737V107.625H172.169ZM172.457 102.497C172.34 102.497 172.241 102.457 172.161 102.377C172.081 102.297 172.041 102.201 172.041 102.089C172.041 101.977 172.081 101.884 172.161 101.809C172.241 101.729 172.34 101.689 172.457 101.689C172.575 101.689 172.673 101.726 172.753 101.801C172.833 101.876 172.873 101.969 172.873 102.081C172.873 102.198 172.833 102.297 172.753 102.377C172.679 102.457 172.58 102.497 172.457 102.497ZM175.698 107.625L173.834 103.425H174.426L176.138 107.321H175.858L177.594 103.425H178.154L176.282 107.625H175.698ZM179.254 107.625V103.425H179.822V107.625H179.254ZM179.542 102.497C179.425 102.497 179.326 102.457 179.246 102.377C179.166 102.297 179.126 102.201 179.126 102.089C179.126 101.977 179.166 101.884 179.246 101.809C179.326 101.729 179.425 101.689 179.542 101.689C179.659 101.689 179.758 101.726 179.838 101.801C179.918 101.876 179.958 101.969 179.958 102.081C179.958 102.198 179.918 102.297 179.838 102.377C179.763 102.457 179.665 102.497 179.542 102.497ZM183.03 107.665C182.636 107.665 182.332 107.558 182.118 107.345C181.905 107.132 181.798 106.83 181.798 106.441V102.497H182.366V106.409C182.366 106.654 182.428 106.844 182.55 106.977C182.678 107.11 182.86 107.177 183.094 107.177C183.345 107.177 183.553 107.105 183.718 106.961L183.918 107.369C183.806 107.47 183.67 107.545 183.51 107.593C183.356 107.641 183.196 107.665 183.03 107.665ZM181.046 103.897V103.425H183.646V103.897H181.046ZM185.206 109.217C185.009 109.217 184.82 109.185 184.638 109.121C184.462 109.057 184.31 108.961 184.182 108.833L184.446 108.409C184.553 108.51 184.668 108.588 184.79 108.641C184.918 108.7 185.06 108.729 185.214 108.729C185.401 108.729 185.561 108.676 185.694 108.569C185.833 108.468 185.964 108.286 186.086 108.025L186.358 107.409L186.422 107.321L188.15 103.425H188.71L186.606 108.129C186.489 108.401 186.358 108.617 186.214 108.777C186.076 108.937 185.924 109.049 185.758 109.113C185.593 109.182 185.409 109.217 185.206 109.217ZM186.326 107.745L184.39 103.425H184.982L186.694 107.281L186.326 107.745Z" fill="#818181"/>
<rect x="172.776" width="16.5056" height="73.8994" rx="4" fill="#E02726"/>
</svg>
