<svg width="188" height="111" viewBox="0 0 188 111" fill="none" xmlns="http://www.w3.org/2000/svg">
<rect y="0.796875" width="16.3582" height="73.2396" rx="4" fill="#FAFAFA"/>
<rect x="48.9219" y="0.796875" width="16.3582" height="73.2396" rx="4" fill="#FAFAFA"/>
<rect x="73.3848" y="0.796875" width="16.3582" height="73.2396" rx="4" fill="#FAFAFA"/>
<rect x="97.8438" y="0.796875" width="16.3582" height="73.2396" rx="4" fill="#FAFAFA"/>
<rect x="122.308" y="0.796875" width="16.3582" height="73.2396" rx="4" fill="#E2E2E2"/>
<rect x="146.771" y="0.796875" width="16.3582" height="73.2396" rx="4" fill="#E02726"/>
<rect x="24.4629" y="0.796875" width="16.3582" height="73.2396" rx="4" fill="#FAFAFA"/>
<path d="M0.912 95.8516V90.2516H1.504V95.3396H4.64V95.8516H0.912ZM7.45244 95.8916C7.0471 95.8916 6.68177 95.8009 6.35644 95.6196C6.03644 95.4329 5.7831 95.1796 5.59644 94.8596C5.40977 94.5342 5.31644 94.1636 5.31644 93.7476C5.31644 93.3262 5.40977 92.9556 5.59644 92.6356C5.7831 92.3156 6.03644 92.0649 6.35644 91.8836C6.67644 91.7022 7.04177 91.6116 7.45244 91.6116C7.86844 91.6116 8.23644 91.7022 8.55644 91.8836C8.88177 92.0649 9.1351 92.3156 9.31644 92.6356C9.5031 92.9556 9.59644 93.3262 9.59644 93.7476C9.59644 94.1636 9.5031 94.5342 9.31644 94.8596C9.1351 95.1796 8.88177 95.4329 8.55644 95.6196C8.2311 95.8009 7.8631 95.8916 7.45244 95.8916ZM7.45244 95.3876C7.75644 95.3876 8.02577 95.3209 8.26044 95.1876C8.4951 95.0489 8.6791 94.8569 8.81244 94.6116C8.9511 94.3609 9.02044 94.0729 9.02044 93.7476C9.02044 93.4169 8.9511 93.1289 8.81244 92.8836C8.6791 92.6382 8.4951 92.4489 8.26044 92.3156C8.02577 92.1769 7.7591 92.1076 7.46044 92.1076C7.16177 92.1076 6.8951 92.1769 6.66044 92.3156C6.42577 92.4489 6.2391 92.6382 6.10044 92.8836C5.96177 93.1289 5.89244 93.4169 5.89244 93.7476C5.89244 94.0729 5.96177 94.3609 6.10044 94.6116C6.2391 94.8569 6.42577 95.0489 6.66044 95.1876C6.8951 95.3209 7.1591 95.3876 7.45244 95.3876ZM11.7949 95.8516L10.2109 91.6516H10.7549L12.1949 95.5476H11.9469L13.4269 91.6516H13.9149L15.3789 95.5476H15.1309L16.5949 91.6516H17.1149L15.5229 95.8516H14.9869L13.5789 92.1876H13.7469L12.3309 95.8516H11.7949ZM1.44 102.964H4.4V103.476H1.44V102.964ZM1.504 105.852H0.912V100.252H4.752V100.764H1.504V105.852ZM8.61463 105.852V104.924L8.59063 104.772V103.22C8.59063 102.862 8.48929 102.588 8.28663 102.396C8.08929 102.204 7.79329 102.108 7.39863 102.108C7.12663 102.108 6.86796 102.153 6.62263 102.244C6.37729 102.334 6.16929 102.454 5.99863 102.604L5.74263 102.18C5.95596 101.998 6.21196 101.86 6.51063 101.764C6.80929 101.662 7.12396 101.612 7.45463 101.612C7.99863 101.612 8.41729 101.748 8.71063 102.02C9.00929 102.286 9.15863 102.694 9.15863 103.244V105.852H8.61463ZM7.16663 105.892C6.85196 105.892 6.57729 105.841 6.34263 105.74C6.11329 105.633 5.93729 105.489 5.81463 105.308C5.69196 105.121 5.63063 104.908 5.63063 104.668C5.63063 104.449 5.68129 104.252 5.78263 104.076C5.88929 103.894 6.05996 103.75 6.29463 103.644C6.53463 103.532 6.85463 103.476 7.25463 103.476H8.70263V103.9H7.27063C6.86529 103.9 6.58263 103.972 6.42263 104.116C6.26796 104.26 6.19063 104.438 6.19063 104.652C6.19063 104.892 6.28396 105.084 6.47063 105.228C6.65729 105.372 6.91863 105.444 7.25463 105.444C7.57463 105.444 7.84929 105.372 8.07863 105.228C8.31329 105.078 8.48396 104.865 8.59063 104.588L8.71863 104.98C8.61196 105.257 8.42529 105.478 8.15863 105.644C7.89729 105.809 7.56663 105.892 7.16663 105.892ZM12.3294 105.892C11.9347 105.892 11.6307 105.785 11.4174 105.572C11.204 105.358 11.0974 105.057 11.0974 104.668V100.724H11.6654V104.636C11.6654 104.881 11.7267 105.07 11.8494 105.204C11.9774 105.337 12.1587 105.404 12.3934 105.404C12.644 105.404 12.852 105.332 13.0174 105.188L13.2174 105.596C13.1054 105.697 12.9694 105.772 12.8094 105.82C12.6547 105.868 12.4947 105.892 12.3294 105.892ZM10.3454 102.124V101.652H12.9454V102.124H10.3454ZM14.5514 105.852V101.652H15.1194V105.852H14.5514ZM14.8394 100.724C14.722 100.724 14.6234 100.684 14.5434 100.604C14.4634 100.524 14.4234 100.428 14.4234 100.316C14.4234 100.204 14.4634 100.11 14.5434 100.036C14.6234 99.9556 14.722 99.9156 14.8394 99.9156C14.9567 99.9156 15.0554 99.9529 15.1354 100.028C15.2154 100.102 15.2554 100.196 15.2554 100.308C15.2554 100.425 15.2154 100.524 15.1354 100.604C15.0607 100.684 14.962 100.724 14.8394 100.724ZM18.7918 107.444C18.4078 107.444 18.0398 107.388 17.6878 107.276C17.3358 107.164 17.0505 107.004 16.8318 106.796L17.1198 106.364C17.3171 106.54 17.5598 106.678 17.8478 106.78C18.1411 106.886 18.4505 106.94 18.7758 106.94C19.3091 106.94 19.7011 106.814 19.9518 106.564C20.2025 106.318 20.3278 105.934 20.3278 105.412V104.364L20.4078 103.644L20.3518 102.924V101.652H20.8958V105.34C20.8958 106.065 20.7171 106.596 20.3598 106.932C20.0078 107.273 19.4851 107.444 18.7918 107.444ZM18.6878 105.692C18.2878 105.692 17.9278 105.606 17.6078 105.436C17.2878 105.26 17.0345 105.017 16.8478 104.708C16.6665 104.398 16.5758 104.044 16.5758 103.644C16.5758 103.244 16.6665 102.892 16.8478 102.588C17.0345 102.278 17.2878 102.038 17.6078 101.868C17.9278 101.697 18.2878 101.612 18.6878 101.612C19.0611 101.612 19.3971 101.689 19.6958 101.844C19.9945 101.998 20.2318 102.228 20.4078 102.532C20.5838 102.836 20.6718 103.206 20.6718 103.644C20.6718 104.081 20.5838 104.452 20.4078 104.756C20.2318 105.06 19.9945 105.292 19.6958 105.452C19.3971 105.612 19.0611 105.692 18.6878 105.692ZM18.7438 105.188C19.0531 105.188 19.3278 105.124 19.5678 104.996C19.8078 104.862 19.9971 104.681 20.1358 104.452C20.2745 104.217 20.3438 103.948 20.3438 103.644C20.3438 103.34 20.2745 103.073 20.1358 102.844C19.9971 102.614 19.8078 102.436 19.5678 102.308C19.3278 102.174 19.0531 102.108 18.7438 102.108C18.4398 102.108 18.1651 102.174 17.9198 102.308C17.6798 102.436 17.4905 102.614 17.3518 102.844C17.2185 103.073 17.1518 103.34 17.1518 103.644C17.1518 103.948 17.2185 104.217 17.3518 104.452C17.4905 104.681 17.6798 104.862 17.9198 104.996C18.1651 105.124 18.4398 105.188 18.7438 105.188ZM24.5124 105.892C24.155 105.892 23.843 105.825 23.5764 105.692C23.3097 105.558 23.1017 105.358 22.9524 105.092C22.8084 104.825 22.7364 104.492 22.7364 104.092V101.652H23.3044V104.028C23.3044 104.476 23.4137 104.814 23.6324 105.044C23.8564 105.268 24.1684 105.38 24.5684 105.38C24.8617 105.38 25.115 105.321 25.3284 105.204C25.547 105.081 25.7124 104.905 25.8244 104.676C25.9417 104.446 26.0004 104.172 26.0004 103.852V101.652H26.5684V105.852H26.0244V104.7L26.1124 104.908C25.979 105.217 25.771 105.46 25.4884 105.636C25.211 105.806 24.8857 105.892 24.5124 105.892ZM30.2354 105.892C29.798 105.892 29.414 105.801 29.0834 105.62C28.7527 105.433 28.494 105.18 28.3074 104.86C28.1207 104.534 28.0274 104.164 28.0274 103.748C28.0274 103.332 28.1154 102.964 28.2914 102.644C28.4727 102.324 28.718 102.073 29.0274 101.892C29.342 101.705 29.694 101.612 30.0834 101.612C30.478 101.612 30.8274 101.702 31.1314 101.884C31.4407 102.06 31.6834 102.31 31.8594 102.636C32.0354 102.956 32.1234 103.326 32.1234 103.748C32.1234 103.774 32.1207 103.804 32.1154 103.836C32.1154 103.862 32.1154 103.892 32.1154 103.924H28.4594V103.5H31.8114L31.5874 103.668C31.5874 103.364 31.5207 103.094 31.3874 102.86C31.2594 102.62 31.0834 102.433 30.8594 102.3C30.6354 102.166 30.3767 102.1 30.0834 102.1C29.7954 102.1 29.5367 102.166 29.3074 102.3C29.078 102.433 28.8994 102.62 28.7714 102.86C28.6434 103.1 28.5794 103.374 28.5794 103.684V103.772C28.5794 104.092 28.6487 104.374 28.7874 104.62C28.9314 104.86 29.1287 105.049 29.3794 105.188C29.6354 105.321 29.926 105.388 30.2514 105.388C30.5074 105.388 30.7447 105.342 30.9634 105.252C31.1874 105.161 31.3794 105.022 31.5394 104.836L31.8594 105.204C31.6727 105.428 31.438 105.598 31.1554 105.716C30.878 105.833 30.5714 105.892 30.2354 105.892Z" fill="#818181"/>
<path d="M171.603 90.2516H172.187V95.8516H171.603V90.2516ZM168.099 95.8516H167.507V90.2516H168.099V95.8516ZM171.659 93.2676H168.035V92.7476H171.659V93.2676ZM174.194 95.8516V91.6516H174.762V95.8516H174.194ZM174.482 90.7236C174.365 90.7236 174.266 90.6836 174.186 90.6036C174.106 90.5236 174.066 90.4276 174.066 90.3156C174.066 90.2036 174.106 90.1102 174.186 90.0356C174.266 89.9556 174.365 89.9156 174.482 89.9156C174.6 89.9156 174.698 89.9529 174.778 90.0276C174.858 90.1022 174.898 90.1956 174.898 90.3076C174.898 90.4249 174.858 90.5236 174.778 90.6036C174.704 90.6836 174.605 90.7236 174.482 90.7236ZM178.435 97.4436C178.051 97.4436 177.683 97.3876 177.331 97.2756C176.979 97.1636 176.694 97.0036 176.475 96.7956L176.763 96.3636C176.96 96.5396 177.203 96.6782 177.491 96.7796C177.784 96.8862 178.094 96.9396 178.419 96.9396C178.952 96.9396 179.344 96.8142 179.595 96.5636C179.846 96.3182 179.971 95.9342 179.971 95.4116V94.3636L180.051 93.6436L179.995 92.9236V91.6516H180.539V95.3396C180.539 96.0649 180.36 96.5956 180.003 96.9316C179.651 97.2729 179.128 97.4436 178.435 97.4436ZM178.331 95.6916C177.931 95.6916 177.571 95.6062 177.251 95.4356C176.931 95.2596 176.678 95.0169 176.491 94.7076C176.31 94.3982 176.219 94.0436 176.219 93.6436C176.219 93.2436 176.31 92.8916 176.491 92.5876C176.678 92.2782 176.931 92.0382 177.251 91.8676C177.571 91.6969 177.931 91.6116 178.331 91.6116C178.704 91.6116 179.04 91.6889 179.339 91.8436C179.638 91.9982 179.875 92.2276 180.051 92.5316C180.227 92.8356 180.315 93.2062 180.315 93.6436C180.315 94.0809 180.227 94.4516 180.051 94.7556C179.875 95.0596 179.638 95.2916 179.339 95.4516C179.04 95.6116 178.704 95.6916 178.331 95.6916ZM178.387 95.1876C178.696 95.1876 178.971 95.1236 179.211 94.9956C179.451 94.8622 179.64 94.6809 179.779 94.4516C179.918 94.2169 179.987 93.9476 179.987 93.6436C179.987 93.3396 179.918 93.0729 179.779 92.8436C179.64 92.6142 179.451 92.4356 179.211 92.3076C178.971 92.1742 178.696 92.1076 178.387 92.1076C178.083 92.1076 177.808 92.1742 177.563 92.3076C177.323 92.4356 177.134 92.6142 176.995 92.8436C176.862 93.0729 176.795 93.3396 176.795 93.6436C176.795 93.9476 176.862 94.2169 176.995 94.4516C177.134 94.6809 177.323 94.8622 177.563 94.9956C177.808 95.1236 178.083 95.1876 178.387 95.1876ZM184.563 91.6116C184.905 91.6116 185.203 91.6782 185.459 91.8116C185.721 91.9396 185.923 92.1369 186.067 92.4036C186.217 92.6702 186.291 93.0062 186.291 93.4116V95.8516H185.723V93.4676C185.723 93.0249 185.611 92.6916 185.387 92.4676C185.169 92.2382 184.859 92.1236 184.459 92.1236C184.161 92.1236 183.899 92.1849 183.675 92.3076C183.457 92.4249 183.286 92.5982 183.163 92.8276C183.046 93.0516 182.987 93.3236 182.987 93.6436V95.8516H182.419V89.9156H182.987V92.8036L182.875 92.5876C183.009 92.2836 183.222 92.0462 183.515 91.8756C183.809 91.6996 184.158 91.6116 184.563 91.6116ZM155.986 102.964H158.946V103.476H155.986V102.964ZM156.05 105.852H155.458V100.252H159.298V100.764H156.05V105.852ZM163.161 105.852V104.924L163.137 104.772V103.22C163.137 102.862 163.035 102.588 162.833 102.396C162.635 102.204 162.339 102.108 161.945 102.108C161.673 102.108 161.414 102.153 161.169 102.244C160.923 102.334 160.715 102.454 160.545 102.604L160.289 102.18C160.502 101.998 160.758 101.86 161.057 101.764C161.355 101.662 161.67 101.612 162.001 101.612C162.545 101.612 162.963 101.748 163.257 102.02C163.555 102.286 163.705 102.694 163.705 103.244V105.852H163.161ZM161.713 105.892C161.398 105.892 161.123 105.841 160.889 105.74C160.659 105.633 160.483 105.489 160.361 105.308C160.238 105.121 160.177 104.908 160.177 104.668C160.177 104.449 160.227 104.252 160.329 104.076C160.435 103.894 160.606 103.75 160.841 103.644C161.081 103.532 161.401 103.476 161.801 103.476H163.249V103.9H161.817C161.411 103.9 161.129 103.972 160.969 104.116C160.814 104.26 160.737 104.438 160.737 104.652C160.737 104.892 160.83 105.084 161.017 105.228C161.203 105.372 161.465 105.444 161.801 105.444C162.121 105.444 162.395 105.372 162.625 105.228C162.859 105.078 163.03 104.865 163.137 104.588L163.265 104.98C163.158 105.257 162.971 105.478 162.705 105.644C162.443 105.809 162.113 105.892 161.713 105.892ZM166.876 105.892C166.481 105.892 166.177 105.785 165.964 105.572C165.75 105.358 165.644 105.057 165.644 104.668V100.724H166.212V104.636C166.212 104.881 166.273 105.07 166.396 105.204C166.524 105.337 166.705 105.404 166.94 105.404C167.19 105.404 167.398 105.332 167.564 105.188L167.764 105.596C167.652 105.697 167.516 105.772 167.356 105.82C167.201 105.868 167.041 105.892 166.876 105.892ZM164.892 102.124V101.652H167.492V102.124H164.892ZM169.098 105.852V101.652H169.666V105.852H169.098ZM169.386 100.724C169.268 100.724 169.17 100.684 169.09 100.604C169.01 100.524 168.97 100.428 168.97 100.316C168.97 100.204 169.01 100.11 169.09 100.036C169.17 99.9556 169.268 99.9156 169.386 99.9156C169.503 99.9156 169.602 99.9529 169.682 100.028C169.762 100.102 169.802 100.196 169.802 100.308C169.802 100.425 169.762 100.524 169.682 100.604C169.607 100.684 169.508 100.724 169.386 100.724ZM173.338 107.444C172.954 107.444 172.586 107.388 172.234 107.276C171.882 107.164 171.597 107.004 171.378 106.796L171.666 106.364C171.863 106.54 172.106 106.678 172.394 106.78C172.687 106.886 172.997 106.94 173.322 106.94C173.855 106.94 174.247 106.814 174.498 106.564C174.749 106.318 174.874 105.934 174.874 105.412V104.364L174.954 103.644L174.898 102.924V101.652H175.442V105.34C175.442 106.065 175.263 106.596 174.906 106.932C174.554 107.273 174.031 107.444 173.338 107.444ZM173.234 105.692C172.834 105.692 172.474 105.606 172.154 105.436C171.834 105.26 171.581 105.017 171.394 104.708C171.213 104.398 171.122 104.044 171.122 103.644C171.122 103.244 171.213 102.892 171.394 102.588C171.581 102.278 171.834 102.038 172.154 101.868C172.474 101.697 172.834 101.612 173.234 101.612C173.607 101.612 173.943 101.689 174.242 101.844C174.541 101.998 174.778 102.228 174.954 102.532C175.13 102.836 175.218 103.206 175.218 103.644C175.218 104.081 175.13 104.452 174.954 104.756C174.778 105.06 174.541 105.292 174.242 105.452C173.943 105.612 173.607 105.692 173.234 105.692ZM173.29 105.188C173.599 105.188 173.874 105.124 174.114 104.996C174.354 104.862 174.543 104.681 174.682 104.452C174.821 104.217 174.89 103.948 174.89 103.644C174.89 103.34 174.821 103.073 174.682 102.844C174.543 102.614 174.354 102.436 174.114 102.308C173.874 102.174 173.599 102.108 173.29 102.108C172.986 102.108 172.711 102.174 172.466 102.308C172.226 102.436 172.037 102.614 171.898 102.844C171.765 103.073 171.698 103.34 171.698 103.644C171.698 103.948 171.765 104.217 171.898 104.452C172.037 104.681 172.226 104.862 172.466 104.996C172.711 105.124 172.986 105.188 173.29 105.188ZM179.059 105.892C178.701 105.892 178.389 105.825 178.123 105.692C177.856 105.558 177.648 105.358 177.499 105.092C177.355 104.825 177.283 104.492 177.283 104.092V101.652H177.851V104.028C177.851 104.476 177.96 104.814 178.179 105.044C178.403 105.268 178.715 105.38 179.115 105.38C179.408 105.38 179.661 105.321 179.875 105.204C180.093 105.081 180.259 104.905 180.371 104.676C180.488 104.446 180.547 104.172 180.547 103.852V101.652H181.115V105.852H180.571V104.7L180.659 104.908C180.525 105.217 180.317 105.46 180.035 105.636C179.757 105.806 179.432 105.892 179.059 105.892ZM184.782 105.892C184.344 105.892 183.96 105.801 183.63 105.62C183.299 105.433 183.04 105.18 182.854 104.86C182.667 104.534 182.574 104.164 182.574 103.748C182.574 103.332 182.662 102.964 182.838 102.644C183.019 102.324 183.264 102.073 183.574 101.892C183.888 101.705 184.24 101.612 184.63 101.612C185.024 101.612 185.374 101.702 185.678 101.884C185.987 102.06 186.23 102.31 186.406 102.636C186.582 102.956 186.67 103.326 186.67 103.748C186.67 103.774 186.667 103.804 186.662 103.836C186.662 103.862 186.662 103.892 186.662 103.924H183.006V103.5H186.358L186.134 103.668C186.134 103.364 186.067 103.094 185.934 102.86C185.806 102.62 185.63 102.433 185.406 102.3C185.182 102.166 184.923 102.1 184.63 102.1C184.342 102.1 184.083 102.166 183.854 102.3C183.624 102.433 183.446 102.62 183.318 102.86C183.19 103.1 183.126 103.374 183.126 103.684V103.772C183.126 104.092 183.195 104.374 183.334 104.62C183.478 104.86 183.675 105.049 183.926 105.188C184.182 105.321 184.472 105.388 184.798 105.388C185.054 105.388 185.291 105.342 185.51 105.252C185.734 105.161 185.926 105.022 186.086 104.836L186.406 105.204C186.219 105.428 185.984 105.598 185.702 105.716C185.424 105.833 185.118 105.892 184.782 105.892Z" fill="#818181"/>
<rect x="171.233" width="16.3582" height="73.2396" rx="4" fill="#E2E2E2"/>
</svg>
